<?xml version="1.0" encoding="utf-8"?>
<!-- Svg Vector Icons : http://www.onlinewebfonts.com/icon -->
<!DOCTYPE svg PUBLIC "-//W3C//DTD SVG 1.1//EN" "http://www.w3.org/Graphics/SVG/1.1/DTD/svg11.dtd">
<svg version="1.1" xmlns="http://www.w3.org/2000/svg" xmlns:xlink="http://www.w3.org/1999/xlink" x="0px" y="0px" viewBox="0 0 1000 1000" enable-background="new 0 0 1000 1000" xml:space="preserve">
<metadata> Svg Vector Icons : http://www.onlinewebfonts.com/icon </metadata>
<g><g transform="translate(0.000000,511.000000) scale(0.100000,-0.100000)"><path d="M3809.7,3583.6v-246l-365-7.9c-355.1-5.9-367-7.9-416.6-53.6l-51.6-47.6V2010.5V794.4h-515.8h-515.8V536.5V278.6h-349.2c-351.1,0-406.7-9.9-458.3-77.4c-17.9-23.8-23.8-323.4-25.8-1245.8v-1216.1H605.9H100v-674.5v-674.5h1180.4h1180.4v674.5v674.5h-505.9H1449v1101v1101h248h248v-248v-248h1180.4h1180.4v248v248h267.8h267.8v-1101v-1101h-515.8h-515.8v-674.5v-674.5h1180.4h1180.4v674.5v674.5h-505.9h-505.9v1101v1101h257.9h257.9v-248v-248h1180.4h1180.4v248v248h257.9H8551v-1101v-1101h-505.9h-505.9v-674.5v-674.5h1180.4H9900v674.5v674.5h-505.9h-505.9v1216.1c-2,922.5-7.9,1222-25.8,1245.8c-51.6,67.4-107.1,77.4-468.2,77.4h-359.1v257.9v257.9h-505.9h-505.9v1204.2c2,1146.6,0,1208.1-35.7,1253.8c-19.8,27.8-59.5,57.5-85.3,63.5c-25.8,7.9-202.4,13.9-388.8,15.9l-343.2,2v248v248H4990.1H3809.7V3583.6z M5849.1,3161.1l4-343.2h-853h-853v333.3c0,184.5,4,339.2,9.9,345.2c5.9,4,386.8,7.9,849.1,7.9l837.2-2L5849.1,3161.1z M3809.7,2738.5v-257.9h1180.4h1180.4v257.9v259.9l263.8-6l261.9-5.9l5.9-1095.1l4-1097h-515.8h-515.8V536.5V278.6h-684.4h-684.4v257.9v257.9h-505.9h-505.9v1087.1c0,599.1,5.9,1095.1,13.9,1101c5.9,7.9,123,13.9,257.9,13.9h244V2738.5z M3984.3,115.9l-5.9-343.2h-843.1h-843.1l-5.9,317.4c-2,172.6,0,327.3,4,341.2c7.9,19.8,184.5,25.8,855,25.8h843.1L3984.3,115.9z M7707.9,110v-337.2h-843.1h-843.1l-5.9,343.2l-4,341.2l847.1-4l849.1-5.9V110z M2123.5-2935.1v-337.2h-853h-853v337.2v337.2h853h853V-2935.1z M5853-2935.1v-337.2h-853h-853v337.2v337.2h853h853V-2935.1z M9582.6-2935.1v-337.2h-853h-853v337.2v337.2h853h853V-2935.1z"/></g></g>
</svg>