<?xml version="1.0" standalone="no"?>
<!DOCTYPE svg PUBLIC "-//W3C//DTD SVG 20010904//EN"
 "http://www.w3.org/TR/2001/REC-SVG-20010904/DTD/svg10.dtd">
<svg version="1.0" xmlns="http://www.w3.org/2000/svg"
 width="4189.000000pt" height="4189.000000pt" viewBox="0 0 4189.000000 4189.000000"
 preserveAspectRatio="xMidYMid meet">
<metadata>
Created by potrace 1.14, written by Peter Selinger 2001-2017
</metadata>
<g transform="translate(0.000000,4189.000000) scale(0.100000,-0.100000)"
fill="#000000" stroke="none">
<path d="M20145 41870 c-2842 -119 -5501 -758 -8006 -1923 -2859 -1331 -5382
-3289 -7385 -5732 -1104 -1347 -2052 -2856 -2791 -4444 -1096 -2356 -1740
-4906 -1898 -7521 -30 -496 -38 -867 -32 -1510 6 -728 22 -1067 78 -1700 472
-5346 3006 -10314 7074 -13870 2359 -2062 5163 -3575 8160 -4403 2499 -691
5101 -910 7715 -651 1846 183 3684 622 5426 1295 2286 882 4446 2196 6288
3823 715 632 1441 1368 2050 2079 2831 3304 4553 7368 4945 11672 304 3327
-167 6647 -1374 9685 -356 896 -821 1863 -1284 2670 -1253 2181 -2858 4096
-4776 5695 -1693 1412 -3585 2542 -5620 3357 -1451 582 -2998 1006 -4530 1242
-733 113 -1369 178 -2225 227 -236 13 -1552 20 -1815 9z m1370 -160 c3072 -92
5980 -818 8685 -2169 2578 -1289 4836 -3077 6695 -5306 2719 -3259 4376 -7297
4725 -11515 82 -992 94 -2057 35 -3055 -284 -4786 -2230 -9331 -5505 -12855
-3603 -3877 -8497 -6219 -13760 -6584 -531 -37 -662 -41 -1440 -41 -800 0
-947 4 -1520 45 -2296 165 -4547 713 -6670 1623 -693 296 -1496 698 -2145
1072 -4552 2622 -7941 6852 -9495 11850 -931 2995 -1168 6236 -684 9374 599
3891 2296 7522 4904 10496 319 364 510 566 934 991 425 424 627 615 991 934
2596 2277 5699 3864 9050 4629 1686 385 3488 562 5200 511z"/>
<path d="M20400 41164 c-611 -24 -873 -40 -1310 -80 -4057 -367 -7906 -1964
-11060 -4588 -491 -408 -874 -759 -1365 -1251 -492 -491 -843 -874 -1251
-1365 -1945 -2338 -3337 -5075 -4068 -7995 -331 -1323 -512 -2563 -588 -4030
-17 -319 -17 -1503 0 -1820 29 -541 62 -954 113 -1405 564 -4978 2976 -9574
6769 -12901 1454 -1274 3100 -2343 4860 -3156 3088 -1426 6489 -2042 9930
-1797 3008 213 5921 1097 8540 2592 1188 678 2281 1456 3306 2353 356 312 568
511 985 928 417 417 616 629 928 985 1439 1644 2598 3503 3446 5526 1228 2933
1741 6169 1490 9390 -243 3107 -1200 6106 -2800 8775 -1403 2340 -3254 4366
-5455 5972 -2824 2060 -6131 3351 -9590 3742 -444 50 -853 83 -1380 111 -189
11 -1327 21 -1500 14z m1335 -175 c3405 -125 6734 -1125 9645 -2899 3389
-2064 6108 -5102 7777 -8689 1033 -2221 1652 -4628 1817 -7071 36 -526 41
-697 41 -1380 0 -706 -6 -899 -46 -1450 -223 -3125 -1168 -6132 -2772 -8820
-1242 -2080 -2853 -3921 -4762 -5442 -3156 -2513 -6995 -4010 -11025 -4297
-551 -40 -744 -46 -1450 -46 -800 0 -1174 16 -1867 80 -5094 470 -9812 2880
-13207 6745 -2708 3083 -4398 6901 -4855 10975 -129 1148 -159 2382 -85 3535
282 4419 2001 8585 4919 11920 309 353 514 570 919 976 406 405 623 610 976
919 3468 3035 7836 4772 12435 4945 512 19 1002 19 1540 -1z"/>
<path d="M18710 37634 c-497 -62 -932 -310 -1326 -757 -253 -288 -444 -568
-599 -878 -170 -342 -269 -622 -469 -1324 -234 -823 -468 -1463 -657 -1795
-506 -890 -1371 -1626 -2379 -2023 -220 -87 -380 -137 -645 -202 -256 -63
-388 -89 -554 -109 -418 -52 -879 -14 -1201 99 -217 77 -443 54 -648 -66 -80
-47 -210 -180 -260 -264 -84 -144 -123 -326 -102 -482 49 -370 326 -638 700
-678 36 -3 117 -17 180 -30 503 -103 1037 -126 1517 -65 406 52 959 186 1376
334 1483 528 2769 1636 3428 2956 202 405 460 1123 674 1880 178 630 254 851
381 1104 113 227 276 452 458 631 109 108 210 172 279 177 32 2 44 -4 88 -47
160 -157 419 -525 546 -780 150 -299 241 -576 287 -875 64 -414 86 -673 93
-1100 15 -880 -97 -1657 -362 -2520 -71 -232 -79 -274 -78 -415 1 -262 95
-493 277 -683 136 -142 287 -228 499 -284 l82 -22 2070 -6 2070 -5 126 -37
c609 -177 1108 -543 1454 -1063 333 -500 484 -1111 420 -1705 -7 -74 -64 -391
-125 -705 -61 -313 -130 -664 -152 -778 l-40 -208 -207 4 c-2042 38 -4735 32
-6101 -13 -896 -30 -1135 -52 -1470 -135 -840 -210 -1652 -782 -2266 -1597
-452 -601 -771 -1291 -933 -2024 -48 -216 -1029 -5491 -1046 -5622 -36 -283
-44 -570 -25 -837 101 -1361 866 -2581 2042 -3256 481 -276 1052 -463 1486
-487 70 -4 848 -1 1730 6 882 8 1606 12 1609 9 3 -3 -9 -68 -25 -144 -270
-1217 -301 -2428 -96 -3643 69 -408 187 -771 383 -1175 147 -304 284 -527 498
-810 424 -563 752 -812 1196 -907 138 -29 441 -31 592 -4 302 55 608 197 870
406 348 278 742 794 965 1265 159 335 260 631 435 1275 158 582 292 996 460
1421 298 754 888 1455 1666 1977 170 115 331 207 539 311 332 165 602 263
1007 367 444 113 652 140 1011 131 312 -8 512 -38 704 -106 218 -79 454 -56
653 61 84 50 217 181 264 260 82 141 117 283 108 443 -7 122 -26 195 -77 300
-119 241 -343 394 -624 425 -50 6 -147 21 -216 35 -170 33 -391 61 -589 76
-203 15 -613 7 -801 -16 -483 -57 -1084 -208 -1565 -392 -1352 -519 -2525
-1520 -3196 -2728 -262 -470 -513 -1158 -783 -2141 -173 -631 -251 -857 -382
-1114 -229 -450 -636 -857 -763 -763 -43 33 -177 189 -290 340 -232 310 -375
583 -497 950 -132 398 -215 1159 -201 1838 17 765 125 1440 352 2195 24 80 49
172 54 204 15 85 14 281 -3 368 -81 419 -446 756 -863 796 -44 4 -962 0 -2039
-10 -1308 -12 -1984 -14 -2033 -8 -241 32 -591 166 -856 327 -323 197 -652
527 -851 853 -73 120 -181 345 -229 474 -46 126 -108 368 -130 511 -26 166
-31 487 -11 660 9 77 83 496 165 930 l147 790 420 -2 c230 -1 784 -8 1229 -15
1084 -17 4243 -18 4755 0 824 28 961 41 1297 123 533 130 1025 384 1508 778
158 129 496 464 626 621 565 681 933 1445 1118 2320 45 213 1031 5260 1056
5403 43 252 63 620 46 872 -56 856 -334 1612 -833 2268 -561 735 -1337 1249
-2228 1476 -318 81 -159 75 -2072 78 -1022 2 -1708 7 -1708 13 0 5 15 75 34
157 253 1099 310 2202 170 3303 -34 272 -79 535 -115 670 -132 500 -356 1001
-631 1415 -168 252 -433 583 -574 716 -247 234 -490 367 -794 434 -73 16 -398
29 -480 19z m7080 -14217 l35 -2 -226 -1160 c-125 -638 -241 -1218 -259 -1290
-109 -449 -320 -906 -593 -1290 -161 -225 -429 -511 -637 -677 -369 -295 -758
-465 -1155 -502 -247 -24 -1224 -46 -2035 -47 -666 0 -3642 25 -4358 37 l-394
7 6 31 c104 581 426 2280 452 2381 194 775 609 1446 1198 1938 339 283 733
464 1114 511 185 23 830 51 1482 64 292 6 5277 5 5370 -1z"/>
<path d="M31035 25018 c-1193 -11 -2171 -21 -2172 -22 -6 -6 -262 -1531 -257
-1535 2 -3 1090 5 2417 17 2054 18 2422 24 2482 36 39 9 115 38 170 65 200 99
341 272 401 492 27 99 25 300 -4 403 -39 138 -94 229 -202 337 -81 81 -109
102 -190 142 -121 59 -194 76 -350 81 -69 3 -1101 -5 -2295 -16z"/>
<path d="M8504 18479 c-145 -17 -295 -82 -401 -172 -115 -99 -184 -202 -235
-348 -31 -89 -32 -102 -33 -239 0 -125 3 -156 23 -220 37 -118 97 -222 174
-305 111 -119 229 -189 383 -226 78 -18 143 -19 2362 -19 l2281 0 6 28 c14 70
266 1491 266 1501 0 13 -4709 14 -4826 0z"/>
</g>
</svg>
