<svg width="120" height="120" viewBox="0 0 120 120" fill="none" xmlns="http://www.w3.org/2000/svg">
<path d="M110.5 60.5C110.5 88.6666 87.6666 111.5 59.5 111.5C31.3334 111.5 8.5 88.6666 8.5 60.5C8.5 32.3334 31.3334 9.5 59.5 9.5C87.6666 9.5 110.5 32.3334 110.5 60.5ZM55.7877 38.0377C54.8031 39.0223 54.25 40.3576 54.25 41.75V55.25H40.75C39.3576 55.25 38.0223 55.8031 37.0377 56.7877C36.0531 57.7723 35.5 59.1076 35.5 60.5C35.5 61.8924 36.0531 63.2277 37.0377 64.2123C38.0223 65.1969 39.3576 65.75 40.75 65.75H54.25V79.25C54.25 80.6424 54.8031 81.9777 55.7877 82.9623C56.7723 83.9469 58.1076 84.5 59.5 84.5C60.8924 84.5 62.2277 83.9469 63.2123 82.9623C64.1969 81.9777 64.75 80.6424 64.75 79.25V65.75H78.25C79.6424 65.75 80.9777 65.1969 81.9623 64.2123C82.9469 63.2277 83.5 61.8924 83.5 60.5C83.5 59.1076 82.9469 57.7723 81.9623 56.7877C80.9777 55.8031 79.6424 55.25 78.25 55.25H64.75V41.75C64.75 40.3576 64.1969 39.0223 63.2123 38.0377C62.2277 37.0531 60.8924 36.5 59.5 36.5C58.1076 36.5 56.7723 37.0531 55.7877 38.0377Z" fill="#FDFEFF" stroke="#CAE9FF" stroke-width="3"/>
<path d="M59.4999 41.5464V60.2996M59.4999 79.2996V60.2996M59.4999 60.2996H40.5H78.5" stroke="#5FA8D3" stroke-width="10" stroke-linecap="round" stroke-linejoin="round"/>
</svg>
