<svg width="23" height="17" viewBox="0 0 23 17" fill="none" xmlns="http://www.w3.org/2000/svg">
<path d="M8.66735 8.5C8.66735 9.2252 8.95543 9.9207 9.46823 10.4335C9.98102 10.9463 10.6765 11.2344 11.4017 11.2344C12.1269 11.2344 12.8224 10.9463 13.3352 10.4335C13.848 9.9207 14.1361 9.2252 14.1361 8.5C14.1361 7.7748 13.848 7.0793 13.3352 6.5665C12.8224 6.05371 12.1269 5.76562 11.4017 5.76562C10.6765 5.76562 9.98102 6.05371 9.46823 6.5665C8.95543 7.0793 8.66735 7.7748 8.66735 8.5ZM22.0023 7.87012C19.6879 2.99463 16.1893 0.541016 11.4994 0.541016C6.80699 0.541016 3.3109 2.99463 0.996448 7.87256C0.903615 8.06913 0.855469 8.28383 0.855469 8.50122C0.855469 8.71861 0.903615 8.93331 0.996448 9.12988C3.3109 14.0054 6.80944 16.459 11.4994 16.459C16.1918 16.459 19.6879 14.0054 22.0023 9.12744C22.1903 8.73193 22.1903 8.27295 22.0023 7.87012ZM11.4017 12.7969C9.02867 12.7969 7.10485 10.873 7.10485 8.5C7.10485 6.12695 9.02867 4.20312 11.4017 4.20312C13.7748 4.20312 15.6986 6.12695 15.6986 8.5C15.6986 10.873 13.7748 12.7969 11.4017 12.7969Z" fill="#7C7C7C"/>
</svg>
