<svg width="150" height="150" viewBox="0 0 150 150" fill="none" xmlns="http://www.w3.org/2000/svg">
<circle cx="75" cy="75" r="75" fill="#BEE9E8"/>
<path d="M29.2492 57.5703V51.2617L74.7375 33L120.558 51.2617V57.5703H114.581C114.581 57.5703 114.559 58.5887 113.917 59.2305C113.253 59.8945 112.921 59.8945 112.921 59.8945H36.8859C36.8859 59.8945 36.2218 59.5625 35.8898 59.2305C35.248 58.5887 35.2257 57.5703 35.2257 57.5703H29.2492Z" fill="#5FA8D3"/>
<path d="M35.2257 101.398C36.8859 100.07 41.2023 100.07 41.2023 100.07V63.5469H53.4874V100.07H59.464V63.5469H71.7492V100.07H77.7257V63.5469H90.0109V100.07H95.9874V63.5469H108.273V100.07C108.273 100.07 112.257 99.7383 113.917 101.066C114.249 102.727 114.249 106.047 114.249 106.047H35.2257C35.2257 106.047 34.8937 103.391 35.2257 101.398Z" fill="#5FA8D3"/>
<path d="M120.558 118H29.2492C29.2492 118 28.2527 112.023 30.2451 109.035C31.5732 108.371 117.237 109.035 119.894 109.367C121.222 114.348 120.558 118 120.558 118Z" fill="#5FA8D3"/>
</svg>
