<svg width="287" height="368" viewBox="0 0 287 368" fill="none" xmlns="http://www.w3.org/2000/svg">
<path d="M112.905 346.495C110.595 346.495 108.523 346.11 106.69 345.34C104.857 344.533 103.408 343.433 102.345 342.04C101.282 340.61 100.695 338.978 100.585 337.145H105.755C105.902 338.648 106.598 339.877 107.845 340.83C109.128 341.783 110.797 342.26 112.85 342.26C114.757 342.26 116.26 341.838 117.36 340.995C118.46 340.152 119.01 339.088 119.01 337.805C119.01 336.485 118.423 335.513 117.25 334.89C116.077 334.23 114.262 333.588 111.805 332.965C109.568 332.378 107.735 331.792 106.305 331.205C104.912 330.582 103.702 329.683 102.675 328.51C101.685 327.3 101.19 325.723 101.19 323.78C101.19 322.24 101.648 320.828 102.565 319.545C103.482 318.262 104.783 317.253 106.47 316.52C108.157 315.75 110.082 315.365 112.245 315.365C115.582 315.365 118.277 316.208 120.33 317.895C122.383 319.582 123.483 321.892 123.63 324.825H118.625C118.515 323.248 117.873 321.983 116.7 321.03C115.563 320.077 114.023 319.6 112.08 319.6C110.283 319.6 108.853 319.985 107.79 320.755C106.727 321.525 106.195 322.533 106.195 323.78C106.195 324.77 106.507 325.595 107.13 326.255C107.79 326.878 108.597 327.392 109.55 327.795C110.54 328.162 111.897 328.583 113.62 329.06C115.783 329.647 117.543 330.233 118.9 330.82C120.257 331.37 121.412 332.213 122.365 333.35C123.355 334.487 123.868 335.972 123.905 337.805C123.905 339.455 123.447 340.94 122.53 342.26C121.613 343.58 120.312 344.625 118.625 345.395C116.975 346.128 115.068 346.495 112.905 346.495ZM157.645 329.775C157.645 330.728 157.59 331.737 157.48 332.8H133.39C133.574 335.77 134.582 338.098 136.415 339.785C138.285 341.435 140.54 342.26 143.18 342.26C145.344 342.26 147.14 341.765 148.57 340.775C150.037 339.748 151.064 338.392 151.65 336.705H157.04C156.234 339.602 154.62 341.967 152.2 343.8C149.78 345.597 146.774 346.495 143.18 346.495C140.32 346.495 137.754 345.853 135.48 344.57C133.244 343.287 131.484 341.472 130.2 339.125C128.917 336.742 128.275 333.992 128.275 330.875C128.275 327.758 128.899 325.027 130.145 322.68C131.392 320.333 133.134 318.537 135.37 317.29C137.644 316.007 140.247 315.365 143.18 315.365C146.04 315.365 148.57 315.988 150.77 317.235C152.97 318.482 154.657 320.205 155.83 322.405C157.04 324.568 157.645 327.025 157.645 329.775ZM152.475 328.73C152.475 326.823 152.054 325.192 151.21 323.835C150.367 322.442 149.212 321.397 147.745 320.7C146.315 319.967 144.72 319.6 142.96 319.6C140.43 319.6 138.267 320.407 136.47 322.02C134.71 323.633 133.702 325.87 133.445 328.73H152.475ZM168.432 320.755C169.312 319.032 170.558 317.693 172.172 316.74C173.822 315.787 175.82 315.31 178.167 315.31V320.48H176.847C171.237 320.48 168.432 323.523 168.432 329.61V346H163.427V315.86H168.432V320.755ZM194.339 341.38L203.689 315.86H209.024L197.199 346H191.369L179.544 315.86H184.934L194.339 341.38ZM240.624 329.775C240.624 330.728 240.569 331.737 240.459 332.8H216.369C216.553 335.77 217.561 338.098 219.394 339.785C221.264 341.435 223.519 342.26 226.159 342.26C228.323 342.26 230.119 341.765 231.549 340.775C233.016 339.748 234.043 338.392 234.629 336.705H240.019C239.213 339.602 237.599 341.967 235.179 343.8C232.759 345.597 229.753 346.495 226.159 346.495C223.299 346.495 220.733 345.853 218.459 344.57C216.223 343.287 214.463 341.472 213.179 339.125C211.896 336.742 211.254 333.992 211.254 330.875C211.254 327.758 211.878 325.027 213.124 322.68C214.371 320.333 216.113 318.537 218.349 317.29C220.623 316.007 223.226 315.365 226.159 315.365C229.019 315.365 231.549 315.988 233.749 317.235C235.949 318.482 237.636 320.205 238.809 322.405C240.019 324.568 240.624 327.025 240.624 329.775ZM235.454 328.73C235.454 326.823 235.033 325.192 234.189 323.835C233.346 322.442 232.191 321.397 230.724 320.7C229.294 319.967 227.699 319.6 225.939 319.6C223.409 319.6 221.246 320.407 219.449 322.02C217.689 323.633 216.681 325.87 216.424 328.73H235.454ZM251.411 320.755C252.291 319.032 253.538 317.693 255.151 316.74C256.801 315.787 258.799 315.31 261.146 315.31V320.48H259.826C254.216 320.48 251.411 323.523 251.411 329.61V346H246.406V315.86H251.411V320.755Z" fill="url(#paint0_linear_181_87)"/>
<path d="M28.0703 331.656L28.1875 331.539L28.0703 331.656ZM27.0156 319.625H27.25C28.0312 320.146 28.6953 321.214 29.2422 322.828C29.7891 324.443 30.0625 325.862 30.0625 327.086C30.0625 327.372 30.0495 327.568 30.0234 327.672C29.8932 328.74 29.0729 330.172 27.5625 331.969C26.8594 332.542 26.1693 333.115 25.4922 333.688C26.0911 333.74 26.7682 333.792 27.5234 333.844C28.3047 333.896 29.1771 333.922 30.1406 333.922C30.8958 333.922 31.612 333.883 32.2891 333.805C34.7109 333.544 36.1823 333.362 36.7031 333.258C38.1094 332.971 39.4115 332.398 40.6094 331.539L40.7266 319.625H27.0156ZM51.3906 315.25L55.7266 319.625H45.7656L45.7266 349.078L40.7266 345.602V335.211C39.8151 335.523 38.7995 335.81 37.6797 336.07C36.1432 336.435 34.737 336.695 33.4609 336.852C32.6797 336.93 31.8333 336.969 30.9219 336.969C29.5938 336.969 27.6536 336.865 25.1016 336.656C24.6589 336.656 24.2292 336.643 23.8125 336.617C24.4635 337.737 25.1276 338.857 25.8047 339.977C26.9245 341.826 27.9922 343.375 29.0078 344.625C30.4401 346.37 31.8724 347.685 33.3047 348.57C32.9922 348.909 32.6276 349.078 32.2109 349.078C31.5078 349.078 30.5964 348.622 29.4766 347.711C29.0859 347.398 28.2135 346.578 26.8594 345.25C25.3229 343.766 24.0469 342.451 23.0312 341.305C22.1198 340.263 21.1823 339.078 20.2188 337.75C19.75 337.099 19.2682 336.305 18.7734 335.367C17.3672 332.711 16.625 331.331 16.5469 331.227C16.2865 330.654 16.1562 330.12 16.1562 329.625C16.1562 329.104 16.3255 328.583 16.6641 328.062C16.8464 327.802 17.0547 327.62 17.2891 327.516C17.5495 327.411 17.849 327.359 18.1875 327.359C18.8125 327.359 19.3854 327.529 19.9062 327.867C20.4271 328.18 20.7396 328.518 20.8438 328.883C20.9479 329.247 21.0391 329.534 21.1172 329.742C21.2734 330.003 21.4818 330.133 21.7422 330.133C21.8984 330.133 22.1068 330.081 22.3672 329.977C22.6276 329.846 22.9271 329.638 23.2656 329.352C23.7083 329.039 24.2422 328.44 24.8672 327.555C25.5182 326.643 25.987 325.862 26.2734 325.211C26.4557 324.768 26.5469 324.326 26.5469 323.883C26.5469 323.362 26.3906 322.607 26.0781 321.617C25.8698 320.966 25.6354 320.471 25.375 320.133C25.1406 319.794 24.9714 319.625 24.8672 319.625H15.9219L11.5469 315.25H51.3906ZM51.7812 320.523C51.5208 320.133 51.3255 319.729 51.1953 319.312C51.0391 318.896 50.9609 318.427 50.9609 317.906C50.9609 317.385 51.0911 316.826 51.3516 316.227C51.638 315.602 52.1068 315.107 52.7578 314.742C53.4349 314.352 54.1771 314.156 54.9844 314.156C55.5573 314.156 56.1823 314.26 56.8594 314.469C57.4583 314.703 57.9922 315.081 58.4609 315.602C58.7995 315.966 59.1901 316.526 59.6328 317.281C60.1016 318.01 60.4401 319.052 60.6484 320.406C60.7786 321.292 60.8438 322.255 60.8438 323.297C60.8438 323.583 60.8438 323.766 60.8438 323.844C60.8438 323.896 60.8438 323.961 60.8438 324.039V331.109H71.5859C72.0286 331.109 72.3802 331.37 72.6406 331.891C72.9271 332.385 73.0703 332.971 73.0703 333.648C73.0703 334.352 72.9401 334.964 72.6797 335.484C72.4193 335.979 72.0547 336.227 71.5859 336.227H62.8359C61.7422 336.227 61.1042 336.526 60.9219 337.125C60.7656 338.453 60.5703 339.846 60.3359 341.305C59.3724 341.565 57.7057 340.432 55.3359 337.906C52.888 335.302 51.5469 333.076 51.3125 331.227C51.9635 331.227 52.5625 331.24 53.1094 331.266C53.6823 331.266 54.1901 331.266 54.6328 331.266C55.0495 331.266 55.349 331.253 55.5312 331.227C55.7135 331.174 55.8047 330.979 55.8047 330.641C55.7786 330.302 55.7656 329.99 55.7656 329.703L55.9219 323.023C55.5052 322.919 55.1797 322.828 54.9453 322.75C53.4349 322.203 52.3802 321.461 51.7812 320.523ZM55.4141 319.117C55.2839 319.352 55.1667 319.599 55.0625 319.859C54.9583 320.12 54.9062 320.367 54.9062 320.602C54.9062 320.992 55.0365 321.24 55.2969 321.344C55.5833 321.422 55.7917 321.461 55.9219 321.461C56.1042 321.461 56.3646 321.292 56.7031 320.953C57.0677 320.615 57.4323 320.263 57.7969 319.898C58.1875 319.534 58.3828 319.195 58.3828 318.883C58.3828 318.701 58.3307 318.544 58.2266 318.414C58.0182 318.128 57.7188 317.984 57.3281 317.984C56.9896 317.984 56.638 318.089 56.2734 318.297C55.9089 318.505 55.6224 318.779 55.4141 319.117ZM87.7188 330.836L87.6406 319.625H77.7969C77.9792 319.964 78.4609 320.94 79.2422 322.555C79.4505 323.023 79.776 323.688 80.2188 324.547C80.375 324.833 80.4922 325.172 80.5703 325.562C80.6484 325.927 80.6875 326.279 80.6875 326.617C80.6875 327.112 80.6484 327.529 80.5703 327.867C80.5182 328.206 80.401 328.583 80.2188 329C80.0625 329.417 79.75 329.872 79.2812 330.367C78.8125 330.862 78.2656 331.305 77.6406 331.695C77.1198 332.008 76.3776 332.294 75.4141 332.555C75.1016 332.633 74.6719 332.724 74.125 332.828C74.099 332.958 74.112 333.128 74.1641 333.336C74.2161 333.544 74.4115 333.883 74.75 334.352C75.1146 334.82 75.7396 335.289 76.625 335.758C77.5104 336.227 78.3177 336.461 79.0469 336.461C79.6719 336.461 80.5573 336.201 81.7031 335.68C82.4844 335.315 83.2135 334.924 83.8906 334.508C84.776 333.935 85.5312 333.336 86.1562 332.711C86.6771 332.086 87.1979 331.461 87.7188 330.836ZM75.5312 319.625H71.1953L66.7812 315.25H97.4453L101.82 319.625H92.7969V349.078L87.8359 345.406L87.7578 337.555C86.7682 338.388 85.7396 339.039 84.6719 339.508C83.6302 339.977 82.5365 340.211 81.3906 340.211H80.9609C80.7786 340.211 80.5312 340.185 80.2188 340.133C78.6042 339.898 77.2891 339.404 76.2734 338.648C75.6745 338.206 74.9974 337.477 74.2422 336.461C73.7995 335.836 73.3828 335.172 72.9922 334.469C72.6276 333.74 72.2891 332.945 71.9766 332.086C71.6641 331.227 71.4427 330.615 71.3125 330.25C71.0781 329.625 70.9609 329.182 70.9609 328.922C70.9609 328.688 71.0521 328.583 71.2344 328.609C71.9115 328.427 72.4323 328.297 72.7969 328.219C73.8125 327.958 74.4896 327.75 74.8281 327.594C75.3229 327.359 75.8568 326.969 76.4297 326.422C77.237 325.641 77.6406 324.885 77.6406 324.156C77.6406 323.844 77.4583 323.323 77.0938 322.594C76.5729 321.604 76.0521 320.615 75.5312 319.625ZM75.5312 319.625L75.4531 319.469L75.5312 319.625ZM87.7188 330.836L87.8359 330.758L87.7188 330.836Z" fill="url(#paint1_linear_181_87)"/>
<path d="M240.178 128.669C246.578 128.122 248.819 127.845 255.189 128.669C253.286 157.348 243.341 218.065 177.854 245.79C116.312 271.845 43.8672 246.685 12.8635 185.492L28.9206 177.457C55.2848 231.605 121.137 252.826 173.643 229.732C216.789 210.754 240.953 161.744 240.178 128.669Z" fill="url(#paint2_linear_181_87)"/>
<path d="M227.434 75.9679C233.401 73.5933 236.641 71.86 241.969 68.2728C227.434 43.4771 191.523 -4.21352 120.556 0.298904C53.8652 4.53948 0.341241 59.4587 0 128.057H17.9543C17.2993 67.8352 66.6905 19.3884 123.977 16.5441C171.051 14.2068 213.326 46.0422 227.434 75.9679Z" fill="url(#paint3_linear_181_87)"/>
<path d="M169.72 98.6257C175.278 95.6331 179.125 93.4956 184.683 90.503C180.408 77.6778 157.75 57.5849 127.824 57.5849C103.029 57.5849 67.1179 73.4027 64.5529 120.856V135.391H112.861C112.861 135.391 116.281 145.652 128.252 145.652C140.222 145.652 144.497 135.391 144.497 135.391H172.285C172.285 135.391 172.978 136.755 173.568 137.529C174.53 138.793 175.705 139.667 175.705 139.667C175.705 139.667 170.575 182.417 127.824 182.417C110.724 182.417 96.6161 172.585 88.9209 160.614C83.7908 164.035 79.9432 166.172 74.3856 169.592C82.5083 182.845 101.319 199.398 128.252 199.518C151.765 199.622 186.393 184.982 192.378 143.942C198.791 142.659 204.776 136.674 204.776 127.269C204.776 120.855 199.646 110.596 188.103 110.596C176.133 110.596 171.858 120.856 171.858 120.856H144.069C144.069 120.856 139.367 111.176 128.252 111.451C117.136 111.726 113.289 120.856 113.289 120.856H81.6533C79.0882 102.901 101.319 73.4027 127.824 74.6852C146.646 75.596 163.307 86.6555 169.72 98.6257Z" fill="url(#paint4_linear_181_87)"/>
<path d="M262.917 128.124C263.141 118.679 255.688 110.832 246.244 110.596C236.8 110.36 228.964 117.825 228.716 127.269C228.456 137.185 237.208 145.541 247.099 144.797C256.049 144.123 262.704 137.096 262.917 128.124Z" fill="url(#paint5_linear_181_87)"/>
<defs>
<linearGradient id="paint0_linear_181_87" x1="103.984" y1="336.043" x2="253.596" y2="336.866" gradientUnits="userSpaceOnUse">
<stop stop-color="#316787"/>
<stop offset="1" stop-color="#599FC8"/>
</linearGradient>
<linearGradient id="paint1_linear_181_87" x1="20.0196" y1="330.8" x2="125.936" y2="330.8" gradientUnits="userSpaceOnUse">
<stop stop-color="#1B4965"/>
<stop offset="1" stop-color="#3C7699"/>
</linearGradient>
<linearGradient id="paint2_linear_181_87" x1="99.2723" y1="254.04" x2="169.35" y2="4.31652" gradientUnits="userSpaceOnUse">
<stop stop-color="#1C4A66"/>
<stop offset="1" stop-color="#589EC6"/>
</linearGradient>
<linearGradient id="paint3_linear_181_87" x1="46.5959" y1="28.0868" x2="221.019" y2="220.038" gradientUnits="userSpaceOnUse">
<stop stop-color="#1C4A66"/>
<stop offset="1" stop-color="#589EC6"/>
</linearGradient>
<linearGradient id="paint4_linear_181_87" x1="46.5959" y1="28.0868" x2="221.019" y2="220.038" gradientUnits="userSpaceOnUse">
<stop stop-color="#1C4A66"/>
<stop offset="1" stop-color="#589EC6"/>
</linearGradient>
<linearGradient id="paint5_linear_181_87" x1="46.5959" y1="28.0868" x2="221.019" y2="220.038" gradientUnits="userSpaceOnUse">
<stop stop-color="#1C4A66"/>
<stop offset="1" stop-color="#589EC6"/>
</linearGradient>
</defs>
</svg>
