<svg width="172" height="53" viewBox="0 0 172 53" fill="none" xmlns="http://www.w3.org/2000/svg">
<path d="M76.485 39.315C75.015 39.315 73.6967 39.07 72.53 38.58C71.3633 38.0667 70.4417 37.3667 69.765 36.48C69.0883 35.57 68.715 34.5317 68.645 33.365H71.935C72.0283 34.3217 72.4717 35.1033 73.265 35.71C74.0817 36.3167 75.1433 36.62 76.45 36.62C77.6633 36.62 78.62 36.3517 79.32 35.815C80.02 35.2783 80.37 34.6017 80.37 33.785C80.37 32.945 79.9967 32.3267 79.25 31.93C78.5033 31.51 77.3483 31.1017 75.785 30.705C74.3617 30.3317 73.195 29.9583 72.285 29.585C71.3983 29.1883 70.6283 28.6167 69.975 27.87C69.345 27.1 69.03 26.0967 69.03 24.86C69.03 23.88 69.3217 22.9817 69.905 22.165C70.4883 21.3483 71.3167 20.7067 72.39 20.24C73.4633 19.75 74.6883 19.505 76.065 19.505C78.1883 19.505 79.9033 20.0417 81.21 21.115C82.5167 22.1883 83.2167 23.6583 83.31 25.525H80.125C80.055 24.5217 79.6467 23.7167 78.9 23.11C78.1767 22.5033 77.1967 22.2 75.96 22.2C74.8167 22.2 73.9067 22.445 73.23 22.935C72.5533 23.425 72.215 24.0667 72.215 24.86C72.215 25.49 72.4133 26.015 72.81 26.435C73.23 26.8317 73.7433 27.1583 74.35 27.415C74.98 27.6483 75.8433 27.9167 76.94 28.22C78.3167 28.5933 79.4367 28.9667 80.3 29.34C81.1633 29.69 81.8983 30.2267 82.505 30.95C83.135 31.6733 83.4617 32.6183 83.485 33.785C83.485 34.835 83.1933 35.78 82.61 36.62C82.0267 37.46 81.1983 38.125 80.125 38.615C79.075 39.0817 77.8617 39.315 76.485 39.315ZM104.956 28.675C104.956 29.2817 104.921 29.9233 104.851 30.6H89.5211C89.6378 32.49 90.2795 33.9717 91.4461 35.045C92.6361 36.095 94.0711 36.62 95.7511 36.62C97.1278 36.62 98.2711 36.305 99.1811 35.675C100.114 35.0217 100.768 34.1583 101.141 33.085H104.571C104.058 34.9283 103.031 36.4333 101.491 37.6C99.9511 38.7433 98.0378 39.315 95.7511 39.315C93.9311 39.315 92.2978 38.9067 90.8511 38.09C89.4278 37.2733 88.3078 36.1183 87.4911 34.625C86.6745 33.1083 86.2661 31.3583 86.2661 29.375C86.2661 27.3917 86.6628 25.6533 87.4561 24.16C88.2495 22.6667 89.3578 21.5233 90.7811 20.73C92.2278 19.9133 93.8845 19.505 95.7511 19.505C97.5711 19.505 99.1811 19.9017 100.581 20.695C101.981 21.4883 103.054 22.585 103.801 23.985C104.571 25.3617 104.956 26.925 104.956 28.675ZM101.666 28.01C101.666 26.7967 101.398 25.7583 100.861 24.895C100.324 24.0083 99.5895 23.3433 98.6561 22.9C97.7461 22.4333 96.7311 22.2 95.6111 22.2C94.0011 22.2 92.6245 22.7133 91.4811 23.74C90.3611 24.7667 89.7195 26.19 89.5561 28.01H101.666ZM111.82 22.935C112.38 21.8383 113.174 20.9867 114.2 20.38C115.25 19.7733 116.522 19.47 118.015 19.47V22.76H117.175C113.605 22.76 111.82 24.6967 111.82 28.57V39H108.635V19.82H111.82V22.935ZM128.307 36.06L134.257 19.82H137.652L130.127 39H126.417L118.892 19.82H122.322L128.307 36.06ZM157.761 28.675C157.761 29.2817 157.726 29.9233 157.656 30.6H142.326C142.443 32.49 143.084 33.9717 144.251 35.045C145.441 36.095 146.876 36.62 148.556 36.62C149.933 36.62 151.076 36.305 151.986 35.675C152.919 35.0217 153.573 34.1583 153.946 33.085H157.376C156.863 34.9283 155.836 36.4333 154.296 37.6C152.756 38.7433 150.843 39.315 148.556 39.315C146.736 39.315 145.103 38.9067 143.656 38.09C142.233 37.2733 141.113 36.1183 140.296 34.625C139.479 33.1083 139.071 31.3583 139.071 29.375C139.071 27.3917 139.468 25.6533 140.261 24.16C141.054 22.6667 142.163 21.5233 143.586 20.73C145.033 19.9133 146.689 19.505 148.556 19.505C150.376 19.505 151.986 19.9017 153.386 20.695C154.786 21.4883 155.859 22.585 156.606 23.985C157.376 25.3617 157.761 26.925 157.761 28.675ZM154.471 28.01C154.471 26.7967 154.203 25.7583 153.666 24.895C153.129 24.0083 152.394 23.3433 151.461 22.9C150.551 22.4333 149.536 22.2 148.416 22.2C146.806 22.2 145.429 22.7133 144.286 23.74C143.166 24.7667 142.524 26.19 142.361 28.01H154.471ZM164.625 22.935C165.185 21.8383 165.978 20.9867 167.005 20.38C168.055 19.7733 169.327 19.47 170.82 19.47V22.76H169.98C166.41 22.76 164.625 24.6967 164.625 28.57V39H161.44V19.82H164.625V22.935Z" fill="url(#paint0_linear_181_95)"/>
<path d="M13.0527 28.9922L13.1406 28.9043L13.0527 28.9922ZM12.2617 19.9688H12.4375C13.0234 20.3594 13.5215 21.1602 13.9316 22.3711C14.3418 23.582 14.5469 24.6465 14.5469 25.5645C14.5469 25.7793 14.5371 25.9258 14.5176 26.0039C14.4199 26.8047 13.8047 27.8789 12.6719 29.2266C12.1445 29.6562 11.627 30.0859 11.1191 30.5156C11.5684 30.5547 12.0762 30.5938 12.6426 30.6328C13.2285 30.6719 13.8828 30.6914 14.6055 30.6914C15.1719 30.6914 15.709 30.6621 16.2168 30.6035C18.0332 30.4082 19.1367 30.2715 19.5273 30.1934C20.582 29.9785 21.5586 29.5488 22.457 28.9043L22.5449 19.9688H12.2617ZM30.543 16.6875L33.7949 19.9688H26.3242L26.2949 42.0586L22.5449 39.4512V31.6582C21.8613 31.8926 21.0996 32.1074 20.2598 32.3027C19.1074 32.5762 18.0527 32.7715 17.0957 32.8887C16.5098 32.9473 15.875 32.9766 15.1914 32.9766C14.1953 32.9766 12.7402 32.8984 10.8262 32.7422C10.4941 32.7422 10.1719 32.7324 9.85938 32.7129C10.3477 33.5527 10.8457 34.3926 11.3535 35.2324C12.1934 36.6191 12.9941 37.7812 13.7559 38.7188C14.8301 40.0273 15.9043 41.0137 16.9785 41.6777C16.7441 41.9316 16.4707 42.0586 16.1582 42.0586C15.6309 42.0586 14.9473 41.7168 14.1074 41.0332C13.8145 40.7988 13.1602 40.1836 12.1445 39.1875C10.9922 38.0742 10.0352 37.0879 9.27344 36.2285C8.58984 35.4473 7.88672 34.5586 7.16406 33.5625C6.8125 33.0742 6.45117 32.4785 6.08008 31.7754C5.02539 29.7832 4.46875 28.748 4.41016 28.6699C4.21484 28.2402 4.11719 27.8398 4.11719 27.4688C4.11719 27.0781 4.24414 26.6875 4.49805 26.2969C4.63477 26.1016 4.79102 25.9648 4.9668 25.8867C5.16211 25.8086 5.38672 25.7695 5.64062 25.7695C6.10938 25.7695 6.53906 25.8965 6.92969 26.1504C7.32031 26.3848 7.55469 26.6387 7.63281 26.9121C7.71094 27.1855 7.7793 27.4004 7.83789 27.5566C7.95508 27.752 8.11133 27.8496 8.30664 27.8496C8.42383 27.8496 8.58008 27.8105 8.77539 27.7324C8.9707 27.6348 9.19531 27.4785 9.44922 27.2637C9.78125 27.0293 10.1816 26.5801 10.6504 25.916C11.1387 25.2324 11.4902 24.6465 11.7051 24.1582C11.8418 23.8262 11.9102 23.4941 11.9102 23.1621C11.9102 22.7715 11.793 22.2051 11.5586 21.4629C11.4023 20.9746 11.2266 20.6035 11.0312 20.3496C10.8555 20.0957 10.7285 19.9688 10.6504 19.9688H3.94141L0.660156 16.6875H30.543ZM30.8359 20.6426C30.6406 20.3496 30.4941 20.0469 30.3965 19.7344C30.2793 19.4219 30.2207 19.0703 30.2207 18.6797C30.2207 18.2891 30.3184 17.8691 30.5137 17.4199C30.7285 16.9512 31.0801 16.5801 31.5684 16.3066C32.0762 16.0137 32.6328 15.8672 33.2383 15.8672C33.668 15.8672 34.1367 15.9453 34.6445 16.1016C35.0938 16.2773 35.4941 16.5605 35.8457 16.9512C36.0996 17.2246 36.3926 17.6445 36.7246 18.2109C37.0762 18.7578 37.3301 19.5391 37.4863 20.5547C37.584 21.2188 37.6328 21.9414 37.6328 22.7227C37.6328 22.9375 37.6328 23.0742 37.6328 23.1328C37.6328 23.1719 37.6328 23.2207 37.6328 23.2793V28.582H45.6895C46.0215 28.582 46.2852 28.7773 46.4805 29.168C46.6953 29.5391 46.8027 29.9785 46.8027 30.4863C46.8027 31.0137 46.7051 31.4727 46.5098 31.8633C46.3145 32.2344 46.041 32.4199 45.6895 32.4199H39.127C38.3066 32.4199 37.8281 32.6445 37.6914 33.0938C37.5742 34.0898 37.4277 35.1348 37.252 36.2285C36.5293 36.4238 35.2793 35.5742 33.502 33.6797C31.666 31.7266 30.6602 30.0566 30.4844 28.6699C30.9727 28.6699 31.4219 28.6797 31.832 28.6992C32.2617 28.6992 32.6426 28.6992 32.9746 28.6992C33.2871 28.6992 33.5117 28.6895 33.6484 28.6699C33.7852 28.6309 33.8535 28.4844 33.8535 28.2305C33.834 27.9766 33.8242 27.7422 33.8242 27.5273L33.9414 22.5176C33.6289 22.4395 33.3848 22.3711 33.209 22.3125C32.0762 21.9023 31.2852 21.3457 30.8359 20.6426ZM33.5605 19.5879C33.4629 19.7637 33.375 19.9492 33.2969 20.1445C33.2188 20.3398 33.1797 20.5254 33.1797 20.7012C33.1797 20.9941 33.2773 21.1797 33.4727 21.2578C33.6875 21.3164 33.8438 21.3457 33.9414 21.3457C34.0781 21.3457 34.2734 21.2188 34.5273 20.9648C34.8008 20.7109 35.0742 20.4473 35.3477 20.1738C35.6406 19.9004 35.7871 19.6465 35.7871 19.4121C35.7871 19.2754 35.748 19.1582 35.6699 19.0605C35.5137 18.8457 35.2891 18.7383 34.9961 18.7383C34.7422 18.7383 34.4785 18.8164 34.2051 18.9727C33.9316 19.1289 33.7168 19.334 33.5605 19.5879ZM57.7891 28.377L57.7305 19.9688H50.3477C50.4844 20.2227 50.8457 20.9551 51.4316 22.166C51.5879 22.5176 51.832 23.0156 52.1641 23.6602C52.2812 23.875 52.3691 24.1289 52.4277 24.4219C52.4863 24.6953 52.5156 24.959 52.5156 25.2129C52.5156 25.584 52.4863 25.8965 52.4277 26.1504C52.3887 26.4043 52.3008 26.6875 52.1641 27C52.0469 27.3125 51.8125 27.6543 51.4609 28.0254C51.1094 28.3965 50.6992 28.7285 50.2305 29.0215C49.8398 29.2559 49.2832 29.4707 48.5605 29.666C48.3262 29.7246 48.0039 29.793 47.5938 29.8711C47.5742 29.9688 47.584 30.0957 47.623 30.252C47.6621 30.4082 47.8086 30.6621 48.0625 31.0137C48.3359 31.3652 48.8047 31.7168 49.4688 32.0684C50.1328 32.4199 50.7383 32.5957 51.2852 32.5957C51.7539 32.5957 52.418 32.4004 53.2773 32.0098C53.8633 31.7363 54.4102 31.4434 54.918 31.1309C55.582 30.7012 56.1484 30.252 56.6172 29.7832C57.0078 29.3145 57.3984 28.8457 57.7891 28.377ZM48.6484 19.9688H45.3965L42.0859 16.6875H65.084L68.3652 19.9688H61.5977V42.0586L57.877 39.3047L57.8184 33.416C57.0762 34.041 56.3047 34.5293 55.5039 34.8809C54.7227 35.2324 53.9023 35.4082 53.043 35.4082H52.7207C52.584 35.4082 52.3984 35.3887 52.1641 35.3496C50.9531 35.1738 49.9668 34.8027 49.2051 34.2363C48.7559 33.9043 48.248 33.3574 47.6816 32.5957C47.3496 32.127 47.0371 31.6289 46.7441 31.1016C46.4707 30.5547 46.2168 29.959 45.9824 29.3145C45.748 28.6699 45.582 28.2109 45.4844 27.9375C45.3086 27.4688 45.2207 27.1367 45.2207 26.9414C45.2207 26.7656 45.2891 26.6875 45.4258 26.707C45.9336 26.5703 46.3242 26.4727 46.5977 26.4141C47.3594 26.2188 47.8672 26.0625 48.1211 25.9453C48.4922 25.7695 48.8926 25.4766 49.3223 25.0664C49.9277 24.4805 50.2305 23.9141 50.2305 23.3672C50.2305 23.1328 50.0938 22.7422 49.8203 22.1953C49.4297 21.4531 49.0391 20.7109 48.6484 19.9688ZM48.6484 19.9688L48.5898 19.8516L48.6484 19.9688ZM57.7891 28.377L57.877 28.3184L57.7891 28.377Z" fill="url(#paint1_linear_181_95)"/>
<defs>
<linearGradient id="paint0_linear_181_95" x1="70.8083" y1="32.5936" x2="166.016" y2="33.1157" gradientUnits="userSpaceOnUse">
<stop stop-color="#316787"/>
<stop offset="1" stop-color="#599FC8"/>
</linearGradient>
<linearGradient id="paint1_linear_181_95" x1="6.9902" y1="28.3484" x2="85.7819" y2="28.3484" gradientUnits="userSpaceOnUse">
<stop stop-color="#1B4965"/>
<stop offset="1" stop-color="#3C7699"/>
</linearGradient>
</defs>
</svg>
