<svg width="180" height="70" viewBox="0 0 180 70" fill="none" xmlns="http://www.w3.org/2000/svg">
<path d="M56 30C57.4922 29.8724 58.0148 29.808 59.5 30C59.0563 36.6868 56.7375 50.8434 41.4688 57.3076C27.1199 63.3824 10.2288 57.5164 3.00011 43.2487L6.74394 41.3752C12.8909 54.0003 28.2449 58.948 40.4869 53.5635C50.5468 49.1387 56.1807 37.7118 56 30Z" fill="url(#paint0_linear_117_670)"/>
<path d="M53.0286 17.7124C54.4201 17.1588 55.1755 16.7546 56.4176 15.9183C53.0286 10.137 44.6558 -0.98241 28.1095 0.0696915C12.56 1.05841 0.0805392 13.8632 0.000976562 29.8574H4.18715C4.03443 15.8162 15.5503 4.52054 28.907 3.85737C39.8827 3.31242 49.7393 10.735 53.0286 17.7124Z" fill="url(#paint1_linear_117_670)"/>
<path d="M39.5723 22.9952C40.8681 22.2975 41.7652 21.7991 43.061 21.1014C42.0642 18.1111 36.7814 13.4263 29.804 13.4263C24.0228 13.4263 15.65 17.1143 15.0519 28.1784V31.5674H26.3154C26.3154 31.5674 27.1128 33.9597 29.9037 33.9597C32.6947 33.9597 33.6914 31.5674 33.6914 31.5674H40.1704C40.1704 31.5674 40.3319 31.8853 40.4694 32.0658C40.6939 32.3604 40.9678 32.5642 40.9678 32.5642C40.9678 32.5642 39.7717 42.5318 29.804 42.5318C25.817 42.5318 22.5277 40.2393 20.7335 37.4483C19.5374 38.2458 18.6403 38.7441 17.3445 39.5415C19.2383 42.6315 23.6241 46.491 29.9037 46.5189C35.3859 46.5432 43.4597 43.1299 44.8552 33.561C46.3503 33.2619 47.7458 31.8665 47.7458 29.6736C47.7458 28.1782 46.5497 25.7862 43.8584 25.7862C41.0675 25.7862 40.0707 28.1784 40.0707 28.1784H33.5917C33.5917 28.1784 32.4953 25.9214 29.9037 25.9855C27.3121 26.0496 26.415 28.1784 26.415 28.1784H19.039C18.4409 23.992 23.6241 17.1143 29.804 17.4134C34.1926 17.6257 38.0772 20.2043 39.5723 22.9952Z" fill="url(#paint2_linear_117_670)"/>
<path d="M61.3018 29.8729C61.354 27.6709 59.6164 25.8412 57.4144 25.7862C55.2124 25.7311 53.3854 27.4716 53.3277 29.6736C53.2671 31.9855 55.3076 33.9339 57.6138 33.7603C59.7005 33.6033 61.2523 31.965 61.3018 29.8729Z" fill="url(#paint3_linear_117_670)"/>
<path d="M125.42 36.18C124.58 36.18 123.827 36.04 123.16 35.76C122.493 35.4667 121.967 35.0667 121.58 34.56C121.193 34.04 120.98 33.4467 120.94 32.78H122.82C122.873 33.3267 123.127 33.7733 123.58 34.12C124.047 34.4667 124.653 34.64 125.4 34.64C126.093 34.64 126.64 34.4867 127.04 34.18C127.44 33.8733 127.64 33.4867 127.64 33.02C127.64 32.54 127.427 32.1867 127 31.96C126.573 31.72 125.913 31.4867 125.02 31.26C124.207 31.0467 123.54 30.8333 123.02 30.62C122.513 30.3933 122.073 30.0667 121.7 29.64C121.34 29.2 121.16 28.6267 121.16 27.92C121.16 27.36 121.327 26.8467 121.66 26.38C121.993 25.9133 122.467 25.5467 123.08 25.28C123.693 25 124.393 24.86 125.18 24.86C126.393 24.86 127.373 25.1667 128.12 25.78C128.867 26.3933 129.267 27.2333 129.32 28.3H127.5C127.46 27.7267 127.227 27.2667 126.8 26.92C126.387 26.5733 125.827 26.4 125.12 26.4C124.467 26.4 123.947 26.54 123.56 26.82C123.173 27.1 122.98 27.4667 122.98 27.92C122.98 28.28 123.093 28.58 123.32 28.82C123.56 29.0467 123.853 29.2333 124.2 29.38C124.56 29.5133 125.053 29.6667 125.68 29.84C126.467 30.0533 127.107 30.2667 127.6 30.48C128.093 30.68 128.513 30.9867 128.86 31.4C129.22 31.8133 129.407 32.3533 129.42 33.02C129.42 33.62 129.253 34.16 128.92 34.64C128.587 35.12 128.113 35.5 127.5 35.78C126.9 36.0467 126.207 36.18 125.42 36.18ZM141.689 30.1C141.689 30.4467 141.669 30.8133 141.629 31.2H132.869C132.936 32.28 133.303 33.1267 133.969 33.74C134.649 34.34 135.469 34.64 136.429 34.64C137.216 34.64 137.869 34.46 138.389 34.1C138.923 33.7267 139.296 33.2333 139.509 32.62H141.469C141.176 33.6733 140.589 34.5333 139.709 35.2C138.829 35.8533 137.736 36.18 136.429 36.18C135.389 36.18 134.456 35.9467 133.629 35.48C132.816 35.0133 132.176 34.3533 131.709 33.5C131.243 32.6333 131.009 31.6333 131.009 30.5C131.009 29.3667 131.236 28.3733 131.689 27.52C132.143 26.6667 132.776 26.0133 133.589 25.56C134.416 25.0933 135.363 24.86 136.429 24.86C137.469 24.86 138.389 25.0867 139.189 25.54C139.989 25.9933 140.603 26.62 141.029 27.42C141.469 28.2067 141.689 29.1 141.689 30.1ZM139.809 29.72C139.809 29.0267 139.656 28.4333 139.349 27.94C139.043 27.4333 138.623 27.0533 138.089 26.8C137.569 26.5333 136.989 26.4 136.349 26.4C135.429 26.4 134.643 26.6933 133.989 27.28C133.349 27.8667 132.983 28.68 132.889 29.72H139.809ZM145.612 26.82C145.932 26.1933 146.385 25.7067 146.972 25.36C147.572 25.0133 148.298 24.84 149.152 24.84V26.72H148.672C146.632 26.72 145.612 27.8267 145.612 30.04V36H143.792V25.04H145.612V26.82ZM155.033 34.32L158.433 25.04H160.373L156.073 36H153.953L149.653 25.04H151.613L155.033 34.32ZM171.863 30.1C171.863 30.4467 171.843 30.8133 171.803 31.2H163.043C163.11 32.28 163.477 33.1267 164.143 33.74C164.823 34.34 165.643 34.64 166.603 34.64C167.39 34.64 168.043 34.46 168.563 34.1C169.097 33.7267 169.47 33.2333 169.683 32.62H171.643C171.35 33.6733 170.763 34.5333 169.883 35.2C169.003 35.8533 167.91 36.18 166.603 36.18C165.563 36.18 164.63 35.9467 163.803 35.48C162.99 35.0133 162.35 34.3533 161.883 33.5C161.417 32.6333 161.183 31.6333 161.183 30.5C161.183 29.3667 161.41 28.3733 161.863 27.52C162.317 26.6667 162.95 26.0133 163.763 25.56C164.59 25.0933 165.537 24.86 166.603 24.86C167.643 24.86 168.563 25.0867 169.363 25.54C170.163 25.9933 170.777 26.62 171.203 27.42C171.643 28.2067 171.863 29.1 171.863 30.1ZM169.983 29.72C169.983 29.0267 169.83 28.4333 169.523 27.94C169.217 27.4333 168.797 27.0533 168.263 26.8C167.743 26.5333 167.163 26.4 166.523 26.4C165.603 26.4 164.817 26.6933 164.163 27.28C163.523 27.8667 163.157 28.68 163.063 29.72H169.983ZM175.786 26.82C176.106 26.1933 176.559 25.7067 177.146 25.36C177.746 25.0133 178.472 24.84 179.326 24.84V26.72H178.846C176.806 26.72 175.786 27.8267 175.786 30.04V36H173.966V25.04H175.786V26.82Z" fill="url(#paint4_linear_117_670)"/>
<path d="M86.4316 30.1953L86.4844 30.1426L86.4316 30.1953ZM85.957 24.7812H86.0625C86.4141 25.0156 86.7129 25.4961 86.959 26.2227C87.2051 26.9492 87.3281 27.5879 87.3281 28.1387C87.3281 28.2676 87.3223 28.3555 87.3105 28.4023C87.252 28.8828 86.8828 29.5273 86.2031 30.3359C85.8867 30.5938 85.5762 30.8516 85.2715 31.1094C85.541 31.1328 85.8457 31.1562 86.1855 31.1797C86.5371 31.2031 86.9297 31.2148 87.3633 31.2148C87.7031 31.2148 88.0254 31.1973 88.3301 31.1621C89.4199 31.0449 90.082 30.9629 90.3164 30.916C90.9492 30.7871 91.5352 30.5293 92.0742 30.1426L92.127 24.7812H85.957ZM96.9258 22.8125L98.877 24.7812H94.3945L94.377 38.0352L92.127 36.4707V31.7949C91.7168 31.9355 91.2598 32.0645 90.7559 32.1816C90.0645 32.3457 89.4316 32.4629 88.8574 32.5332C88.5059 32.5684 88.125 32.5859 87.7148 32.5859C87.1172 32.5859 86.2441 32.5391 85.0957 32.4453C84.8965 32.4453 84.7031 32.4395 84.5156 32.4277C84.8086 32.9316 85.1074 33.4355 85.4121 33.9395C85.916 34.7715 86.3965 35.4688 86.8535 36.0312C87.498 36.8164 88.1426 37.4082 88.7871 37.8066C88.6465 37.959 88.4824 38.0352 88.2949 38.0352C87.9785 38.0352 87.5684 37.8301 87.0645 37.4199C86.8887 37.2793 86.4961 36.9102 85.8867 36.3125C85.1953 35.6445 84.6211 35.0527 84.1641 34.5371C83.7539 34.0684 83.332 33.5352 82.8984 32.9375C82.6875 32.6445 82.4707 32.2871 82.248 31.8652C81.6152 30.6699 81.2812 30.0488 81.2461 30.002C81.1289 29.7441 81.0703 29.5039 81.0703 29.2812C81.0703 29.0469 81.1465 28.8125 81.2988 28.5781C81.3809 28.4609 81.4746 28.3789 81.5801 28.332C81.6973 28.2852 81.832 28.2617 81.9844 28.2617C82.2656 28.2617 82.5234 28.3379 82.7578 28.4902C82.9922 28.6309 83.1328 28.7832 83.1797 28.9473C83.2266 29.1113 83.2676 29.2402 83.3027 29.334C83.373 29.4512 83.4668 29.5098 83.584 29.5098C83.6543 29.5098 83.748 29.4863 83.8652 29.4395C83.9824 29.3809 84.1172 29.2871 84.2695 29.1582C84.4688 29.0176 84.709 28.748 84.9902 28.3496C85.2832 27.9395 85.4941 27.5879 85.623 27.2949C85.7051 27.0957 85.7461 26.8965 85.7461 26.6973C85.7461 26.4629 85.6758 26.123 85.5352 25.6777C85.4414 25.3848 85.3359 25.1621 85.2188 25.0098C85.1133 24.8574 85.0371 24.7812 84.9902 24.7812H80.9648L78.9961 22.8125H96.9258ZM97.1016 25.1855C96.9844 25.0098 96.8965 24.8281 96.8379 24.6406C96.7676 24.4531 96.7324 24.2422 96.7324 24.0078C96.7324 23.7734 96.791 23.5215 96.9082 23.252C97.0371 22.9707 97.248 22.748 97.541 22.584C97.8457 22.4082 98.1797 22.3203 98.543 22.3203C98.8008 22.3203 99.082 22.3672 99.3867 22.4609C99.6562 22.5664 99.8965 22.7363 100.107 22.9707C100.26 23.1348 100.436 23.3867 100.635 23.7266C100.846 24.0547 100.998 24.5234 101.092 25.1328C101.15 25.5312 101.18 25.9648 101.18 26.4336C101.18 26.5625 101.18 26.6445 101.18 26.6797C101.18 26.7031 101.18 26.7324 101.18 26.7676V29.9492H106.014C106.213 29.9492 106.371 30.0664 106.488 30.3008C106.617 30.5234 106.682 30.7871 106.682 31.0918C106.682 31.4082 106.623 31.6836 106.506 31.918C106.389 32.1406 106.225 32.252 106.014 32.252H102.076C101.584 32.252 101.297 32.3867 101.215 32.6562C101.145 33.2539 101.057 33.8809 100.951 34.5371C100.518 34.6543 99.7676 34.1445 98.7012 33.0078C97.5996 31.8359 96.9961 30.834 96.8906 30.002C97.1836 30.002 97.4531 30.0078 97.6992 30.0195C97.957 30.0195 98.1855 30.0195 98.3848 30.0195C98.5723 30.0195 98.707 30.0137 98.7891 30.002C98.8711 29.9785 98.9121 29.8906 98.9121 29.7383C98.9004 29.5859 98.8945 29.4453 98.8945 29.3164L98.9648 26.3105C98.7773 26.2637 98.6309 26.2227 98.5254 26.1875C97.8457 25.9414 97.3711 25.6074 97.1016 25.1855ZM98.7363 24.5527C98.6777 24.6582 98.625 24.7695 98.5781 24.8867C98.5312 25.0039 98.5078 25.1152 98.5078 25.2207C98.5078 25.3965 98.5664 25.5078 98.6836 25.5547C98.8125 25.5898 98.9062 25.6074 98.9648 25.6074C99.0469 25.6074 99.1641 25.5312 99.3164 25.3789C99.4805 25.2266 99.6445 25.0684 99.8086 24.9043C99.9844 24.7402 100.072 24.5879 100.072 24.4473C100.072 24.3652 100.049 24.2949 100.002 24.2363C99.9082 24.1074 99.7734 24.043 99.5977 24.043C99.4453 24.043 99.2871 24.0898 99.123 24.1836C98.959 24.2773 98.8301 24.4004 98.7363 24.5527ZM113.273 29.8262L113.238 24.7812H108.809C108.891 24.9336 109.107 25.373 109.459 26.0996C109.553 26.3105 109.699 26.6094 109.898 26.9961C109.969 27.125 110.021 27.2773 110.057 27.4531C110.092 27.6172 110.109 27.7754 110.109 27.9277C110.109 28.1504 110.092 28.3379 110.057 28.4902C110.033 28.6426 109.98 28.8125 109.898 29C109.828 29.1875 109.688 29.3926 109.477 29.6152C109.266 29.8379 109.02 30.0371 108.738 30.2129C108.504 30.3535 108.17 30.4824 107.736 30.5996C107.596 30.6348 107.402 30.6758 107.156 30.7227C107.145 30.7812 107.15 30.8574 107.174 30.9512C107.197 31.0449 107.285 31.1973 107.438 31.4082C107.602 31.6191 107.883 31.8301 108.281 32.041C108.68 32.252 109.043 32.3574 109.371 32.3574C109.652 32.3574 110.051 32.2402 110.566 32.0059C110.918 31.8418 111.246 31.666 111.551 31.4785C111.949 31.2207 112.289 30.9512 112.57 30.6699C112.805 30.3887 113.039 30.1074 113.273 29.8262ZM107.789 24.7812H105.838L103.852 22.8125H117.65L119.619 24.7812H115.559V38.0352L113.326 36.3828L113.291 32.8496C112.846 33.2246 112.383 33.5176 111.902 33.7285C111.434 33.9395 110.941 34.0449 110.426 34.0449H110.232C110.15 34.0449 110.039 34.0332 109.898 34.0098C109.172 33.9043 108.58 33.6816 108.123 33.3418C107.854 33.1426 107.549 32.8145 107.209 32.3574C107.01 32.0762 106.822 31.7773 106.646 31.4609C106.482 31.1328 106.33 30.7754 106.189 30.3887C106.049 30.002 105.949 29.7266 105.891 29.5625C105.785 29.2812 105.732 29.082 105.732 28.9648C105.732 28.8594 105.773 28.8125 105.855 28.8242C106.16 28.7422 106.395 28.6836 106.559 28.6484C107.016 28.5312 107.32 28.4375 107.473 28.3672C107.695 28.2617 107.936 28.0859 108.193 27.8398C108.557 27.4883 108.738 27.1484 108.738 26.8203C108.738 26.6797 108.656 26.4453 108.492 26.1172C108.258 25.6719 108.023 25.2266 107.789 24.7812ZM107.789 24.7812L107.754 24.7109L107.789 24.7812ZM113.273 29.8262L113.326 29.791L113.273 29.8262Z" fill="url(#paint5_linear_117_670)"/>
<defs>
<linearGradient id="paint0_linear_117_670" x1="23.1469" y1="59.2311" x2="39.486" y2="1.00642" gradientUnits="userSpaceOnUse">
<stop stop-color="#1C4A66"/>
<stop offset="1" stop-color="#589EC6"/>
</linearGradient>
<linearGradient id="paint1_linear_117_670" x1="10.8651" y1="6.54862" x2="51.5332" y2="51.3034" gradientUnits="userSpaceOnUse">
<stop stop-color="#1C4A66"/>
<stop offset="1" stop-color="#589EC6"/>
</linearGradient>
<linearGradient id="paint2_linear_117_670" x1="10.8651" y1="6.54862" x2="51.5332" y2="51.3034" gradientUnits="userSpaceOnUse">
<stop stop-color="#1C4A66"/>
<stop offset="1" stop-color="#589EC6"/>
</linearGradient>
<linearGradient id="paint3_linear_117_670" x1="10.8651" y1="6.54862" x2="51.5332" y2="51.3034" gradientUnits="userSpaceOnUse">
<stop stop-color="#1C4A66"/>
<stop offset="1" stop-color="#589EC6"/>
</linearGradient>
<linearGradient id="paint4_linear_117_670" x1="122.176" y1="32.4492" x2="176.58" y2="32.7504" gradientUnits="userSpaceOnUse">
<stop stop-color="#316787"/>
<stop offset="1" stop-color="#599FC8"/>
</linearGradient>
<linearGradient id="paint5_linear_117_670" x1="82.8137" y1="29.9097" x2="130.605" y2="29.9097" gradientUnits="userSpaceOnUse">
<stop stop-color="#1B4965"/>
<stop offset="1" stop-color="#3C7699"/>
</linearGradient>
</defs>
</svg>
