<svg width="86" height="80" viewBox="0 0 86 80" fill="none" xmlns="http://www.w3.org/2000/svg">
<g clip-path="url(#clip0_181_141)">
<path d="M83.3608 0L46.7451 27.093L53.5541 11.1263L83.3608 0Z" fill="#E17726"/>
<path d="M2.06887 0.0319824L31.7959 11.1283L38.2612 27.3043L2.06887 0.0319824ZM68.6252 57.6193L84.8089 57.9273L79.1529 77.1413L59.4052 71.7043L68.6252 57.6193ZM16.7182 57.6193L25.9039 71.7043L6.18954 77.1417L0.567871 57.9273L16.7182 57.6193Z" fill="#E27625"/>
<path d="M37.3824 23.1839L38.0437 44.5449L18.2534 43.6446L23.8828 35.1519L23.9541 35.0702L37.3824 23.1839ZM47.7567 22.9456L61.3901 35.0709L61.4607 35.1522L67.0901 43.6449L47.3041 44.5449L47.7567 22.9456ZM26.4838 57.6812L37.2897 66.1009L24.7371 72.1612L26.4838 57.6812ZM58.8624 57.6799L60.5727 72.1616L48.0551 66.1002L58.8624 57.6799Z" fill="#E27625"/>
<path d="M48.3315 65.3074L61.0339 71.458L49.2182 77.0734L49.3409 73.362L48.3315 65.3074ZM37.0092 65.31L36.0395 73.3014L36.1192 77.069L24.2759 71.458L37.0092 65.31Z" fill="#D5BFB2"/>
<path d="M33.341 47.333L36.6604 54.309L25.3594 50.9983L33.341 47.333ZM52.0027 47.3337L60.022 50.9983L48.684 54.308L52.0027 47.3337Z" fill="#233447"/>
<path d="M27.3472 57.61L25.5205 72.6233L15.7295 57.9383L27.3472 57.61ZM57.9972 57.6103L69.6152 57.9383L59.7875 72.624L57.9972 57.6103ZM67.3758 42.7957L58.9208 51.4127L52.4018 48.4337L49.2808 54.995L47.2348 43.712L67.3758 42.7957ZM17.9635 42.7957L38.1085 43.712L36.0622 54.995L32.9405 48.4347L26.4562 51.413L17.9635 42.7957Z" fill="#CC6228"/>
<path d="M17.394 41.0273L26.96 50.7343L27.2914 60.3173L17.394 41.0273ZM67.9597 41.01L58.0444 60.3343L58.4177 50.7343L67.9597 41.01ZM37.641 41.6187L38.026 44.042L38.9774 50.079L38.3657 68.6207L35.474 53.7257L35.473 53.5717L37.641 41.6187ZM47.698 41.585L49.8717 53.5717L49.8707 53.7257L46.9717 68.658L46.857 64.923L46.4047 49.969L47.698 41.585Z" fill="#E27525"/>
<path d="M59.2678 50.3486L58.9442 58.6746L48.8528 66.537L46.8128 65.0956L49.0995 53.3173L59.2678 50.3486ZM26.1108 50.3486L36.2438 53.3173L38.5305 65.0956L36.4905 66.537L26.3988 58.674L26.1108 50.3486Z" fill="#F5841F"/>
<path d="M22.3447 69.6194L35.2554 75.7367L35.2007 73.1244L36.2811 72.176H49.0591L50.1784 73.121L50.0957 75.7314L62.9247 69.6347L56.6821 74.7934L49.1337 79.9777H36.1774L28.6341 74.772L22.3447 69.6194Z" fill="#C0AC9D"/>
<path d="M47.4065 64.4929L49.2318 65.7826L50.3015 74.3172L48.7535 73.0102H36.5948L35.0762 74.3436L36.1108 65.7833L37.9368 64.4929H47.4065Z" fill="#161616"/>
<path d="M80.9434 0.75L85.3387 13.9357L82.5937 27.268L84.5484 28.7757L81.9034 30.7937L83.8914 32.329L81.259 34.726L82.875 35.8963L78.5864 40.905L60.9964 35.7833L60.844 35.7017L48.1684 25.009L80.9434 0.75ZM4.4007 0.75L37.176 25.009L24.5 35.7017L24.3477 35.7833L6.75771 40.905L2.46904 35.8963L4.0837 34.727L1.45304 32.329L3.43704 30.7953L0.752371 28.7717L2.7807 27.263L0.00537109 13.9363L4.4007 0.75Z" fill="#763E1A"/>
<path d="M60.1358 34.6633L78.7735 40.0897L84.8285 58.7517H68.8538L57.8472 58.8903L65.8518 43.2877L60.1358 34.6633ZM25.2078 34.6633L19.4908 43.2877L27.4965 58.8903L16.4948 58.7517H0.548828L6.56983 40.09L25.2078 34.6633ZM54.4665 11.0374L49.2535 25.117L48.1472 44.137L47.7238 50.0987L47.6902 65.328H37.6532L37.6205 50.1273L37.1958 44.132L36.0892 25.117L30.8768 11.0374H54.4665Z" fill="#F5841F"/>
</g>
<defs>
<clipPath id="clip0_181_141">
<rect width="85.344" height="80" fill="white"/>
</clipPath>
</defs>
</svg>
