<?xml version="1.0" standalone="no"?>
<!DOCTYPE svg PUBLIC "-//W3C//DTD SVG 1.0//EN" "http://www.w3.org/TR/2001/REC-SVG-20010904/DTD/svg10.dtd">
<svg xmlns="http://www.w3.org/2000/svg" xmlns:xlink="http://www.w3.org/1999/xlink" id="body_1" width="inherit" height="inherit">

<g transform="matrix(0.2666667 0 0 0.2666667 0 0)">
    <path d="M737.2 536.1C 743.8 548.19995 753.5 559.6 754.3 573.19995C 755.6 595.1 734.3 611.49994 725.6 631.7999C 714.89996 656.69995 723.89996 685.99994 714.39996 711.2999C 707.49994 729.5999 690.69995 744.2999 670.89996 749.0999C 656.1 752.6999 640.49994 751.0999 625.19995 751.1999C 581.7999 751.5999 538.49994 766.5999 495.59995 759.79987C 474.39993 756.39984 454.39993 747.79987 433.19995 745.09985C 407.69995 741.79987 377.99994 745.79987 359.79996 728.4999C 334.29996 704.29987 353.19995 659.79987 334.09995 630.79987C 327.89993 621.39984 317.99994 614.09985 314.69995 603.59985C 310.79996 591.1998 317.09995 578.09985 324.89996 567.4999C 332.69995 556.9999 342.39996 547.29987 346.59998 534.9999C 350.39996 523.8999 348.09998 511.79987 343.39996 500.99988C 336.19995 484.39987 356.29996 446.39987 396.29996 449.29987C 414.59995 450.59985 422.89996 429.39987 442.99997 423.49988C 465.99997 416.79987 494.89996 422.1999 511.8 427.79987C 529 433.49988 550.3 436.49988 560.2 421.89987C 574.10004 401.19986 615.7 397.99988 634.4 431.59988C 641.2 443.7999 647.30005 453.39987 661.80005 452.39987C 740.4 447.3 727.3 518.2 737.2 536.1zM522.9 422.8C 522.9 425.59998 522.9 430.4 535.30005 429.59998C 539.10004 429.39996 542.2001 427.3 542.2001 424.49997C 542.2001 421.69998 539.1001 419.39996 535.30005 419.39996C 531.5 419.5 522.9 418.3 522.9 422.8zM400.8 436.5C 400.4 436.7 400.19998 437.1 400 437.5C 399.2 438.7 397.8 439.5 396.4 440.1C 395.6 440.4 394.69998 440.7 394.1 441.30002C 393.1 442.30002 393.2 444.1 394.30002 444.90002C 395.2 445.60004 396.40002 445.7 397.6 445.60004C 401.9 445.40002 406.1 443.80005 409.5 441.20004C 413.8 437.7 403.2 435.2 400.8 436.5zM389 442.9C 387.5 441.9 385.7 442.5 384.2 443.19998C 383.90002 443.4 383.6 443.59998 383.5 443.9C 383.3 444.6 384.2 445.1 384.9 445.3C 386 445.59998 387.19998 446 388.3 445.59998C 389.4 445.3 390.5 443.9 389 442.9zM334.2 532.6C 333.1 529.3 330.6 527.69995 326.7 529.6C 324.40002 530.69995 322.80002 532.8 321.40002 534.89996C 319.2 538.3 317.30002 542.1 317.80002 545.99994C 318.1 548.89996 319.80002 551.5999 322.2 553.2999C 323.2 553.99994 324.40002 554.49994 325.6 554.49994C 327 554.49994 328.2 553.69995 329.30002 552.89996C 331.80002 550.99994 333.7 548.39996 335.6 545.99994C 336.6 544.69995 337.6 543.2999 337.80002 541.7999C 338.3 538.3 335.2 535.6 334.2 532.6zM736.2 633.6C 735.2 634 734.2 634.5 733.7 635.39996C 733.3 636.1 733.10004 636.89996 733.10004 637.69995C 732.9 639.39996 732.80005 640.99994 732.80005 642.69995C 732.80005 644.49994 733.00006 646.49994 734.4 647.7999C 736.30005 649.49994 739.30005 648.8999 741.7 648.19995C 743.10004 647.7999 744.60004 647.39996 745.5 646.2999C 746.2 645.49994 746.4 644.49994 746.6 643.49994C 747.19995 640.19995 749 635.19995 747 633.39996C 744.8 631.6 739.7 632.2 736.2 633.6zM597.3 762C 596.8 762.5 596.3 763 596 763.6C 595.2 765.3 596 767.5 597.8 768.19995C 598.7 768.6 599.7 768.6 600.7 768.49994C 609 768.39996 617.9 768.0999 624.5 763.2999C 625.3 762.69995 626.1 761.8999 626 760.99994C 625.8 759.7999 624.4 759.2999 623.2 759.0999C 614.9 757.6 603.9 755.8 597.3 762zM440.3 749.2C 433.09998 748.2 421.69998 746.9 421.69998 752.7C 421.69998 754.9 431.9 757 433.49997 757.4C 438.69998 758.7 443.59998 760.5 448.59998 762.4C 457.99997 765.9 465.59998 761.2 458.09998 755.9C 452 751.6 446.1 750 440.3 749.2z" stroke="none" fill="#574B90" fill-rule="nonzero" fill-opacity="0.06666667" />
    <path d="M622.3 677C 620 672.6 625.3 667.9 630.2 667C 635.10004 666.1 640.60004 666.8 644.4 663.7C 649.60004 659.60004 649.30005 650.7 655 647.4C 659.6 644.80005 665.7 647.30005 670.5 645.2C 676.5 642.60004 678.2 634.2 684.2 631.4C 688.9 629.10004 695.10004 631.7 697.5 636.30005C 699.9 640.9 698.8 646.9 695.5 651.00006C 692.9 654.10004 689 656.4001 687.4 660.10004C 684.9 666.00006 688.9 673.10004 686.5 679.10004C 682.2 690.10004 661.8 686.80005 658.2 698.10004C 657.4 700.60004 657.7 703.30005 657.5 706.00006C 656.9 713.80005 651.4 720.60004 644.6 724.50006C 637.8 728.4001 629.8 729.7001 622 730.30005C 618.8 730.50006 615.4 730.60004 612.6 729.10004C 609.89996 727.7 608.1 725.2 606.6 722.50006C 597.2 705.6 593.3 683.4 622.3 677M470 661.7C 473.2 656.5 467.2 650.3 461.3 648.8C 455.4 647.3 448.69998 647.6 444.19998 643.5C 438.3 638 439.4 627.1 432.69998 622.6C 427.3 619 419.69998 621.5 413.9 618.5C 406.69998 614.8 405.5 604.3 398.5 600.3C 392.9 597.1 385.1 599.6 381.7 605.1C 378.30002 610.6 379.1 618 382.80002 623.3C 385.7 627.39996 390.2 630.5 391.90002 635.2C 394.50003 642.60004 388.90002 651 391.2 658.5C 395.5 672.4 420.80002 670.2 424 684.4C 424.7 687.60004 424.1 690.80005 424.1 694.10004C 424.1 703.7 430.2 712.60004 438.2 718.00006C 446.2 723.4001 455.80002 725.80005 465.30002 727.2001C 469.2 727.80005 473.30002 728.2001 476.90002 726.6001C 480.30002 725.2001 482.80002 722.2001 484.90002 719.1001C 498 699 504.8 672.2 470 661.7" stroke="none" fill="#9E579D" fill-rule="nonzero" fill-opacity="0.50980395" />
    <path d="M679.2 421.3L672.2 423.69998L669.2 414.99997C 663.60004 398.89996 645.9 390.29996 629.8 395.89996C 613.7 401.49997 605.1 419.19995 610.7 435.29996L610.7 435.29996L613.7 443.99997L606.7 446.39996C 601.2 448.29996 598.3 454.29996 600.2 459.79996L600.2 459.79996L619.9 516.69995C 621.80005 522.19995 627.9 525.19995 633.30005 523.2999L633.30005 523.2999L705.7001 498.19992C 711.2001 496.29993 714.2001 490.19992 712.30005 484.69992L712.30005 484.69992L692.60004 427.79993C 690.8 422.3 684.8 419.3 679.2 421.3zM624 430.6C 620.9 421.80002 625.6 412.1 634.4 409C 643.2 405.9 652.9 410.6 656 419.5L656 419.5L659 428.2L627 439.30002L624 430.6zM666 482.5L671 497C 671.2 497.6 670.8 498.2 670.2 498.5L670.2 498.5L663.2 500.9C 662.7 501.1 662 500.8 661.8 500.19998L661.8 500.19998L656.8 485.69998C 651.39996 485.49997 646.39996 482.09998 644.5 476.59998C 642.1 469.59998 645.8 461.89996 652.8 459.39996C 659.8 456.99997 667.5 460.69995 670 467.69995C 671.9 473.2 670.1 479 666 482.5zM604.1 703C 611.19995 700 617.5 694.3 622.8 688.9C 637 674.2 645.8 655.10004 650.5 635.30005C 654.7 617.4 655.6 599.00006 654.8 580.7001C 654.7 579.2001 652.3 579.1001 652.39996 580.7001C 654.39996 621.80005 646.19995 672.1001 609.49994 697.1001C 607.39996 698.5001 605.2999 699.9001 602.99994 700.9001C 601.5 701.5 602.7 703.6 604.1 703z" stroke="none" fill="#9E579D" fill-rule="nonzero" />
    <path d="M650.8 628.4C 650.8 628.4 653.1 615.10004 670.7 613C 670.8 613 664.3 628.7 650.8 628.4zM645.1 648C 645.1 648 650.5 635.6 668.1 637.7C 668 637.7 658.1 651.5 645.1 648zM637.6 665.4C 637.6 665.4 645.6 654.5 662.3 660.5C 662.3 660.5 649.5 671.7 637.6 665.4zM653.5 607.7C 653.5 607.7 655.8 594.60004 673.1 592.60004C 673.1 592.6 666.8 608.1 653.5 607.7zM653.8 585C 653.8 585 643.89996 576.1 651.39996 560.3C 651.4 560.4 661.1 573.9 653.8 585zM653.8 598.5C 653.8 598.5 640.7 596.1 638.8 578.8C 638.9 578.7 654.3 585.2 653.8 598.5zM652.5 618.4C 652.5 618.4 639.4 616 637.5 598.7C 637.6 598.7 653 605.1 652.5 618.4zM649.1 637.1C 649.1 637.1 636.19995 633.8 635.6 616.39996C 635.6 616.3 650.5 623.8 649.1 637.1zM643.2 655.7C 643.2 655.7 630.3 652.4 629.7 635C 629.7 635 644.6 642.5 643.2 655.7z" stroke="none" fill="#9E579D" fill-rule="nonzero" />
	<g>
        <path d="M470.3 698C 463.19998 695 456.9 689.3 451.59998 683.9C 437.39996 669.2 428.59998 650.10004 423.89996 630.30005C 419.69995 612.4 418.79996 594.00006 419.59998 575.7001C 419.69998 574.2001 422.09998 574.1001 421.99997 575.7001C 419.99997 616.80005 428.19998 667.1001 464.89996 692.1001C 466.99997 693.5001 469.09998 694.9001 471.39996 695.9001C 472.9 696.5 471.7 698.6 470.3 698z" stroke="none" fill="#9E579D" fill-rule="nonzero" />
        <path d="M423.6 623.4C 423.6 623.4 421.30002 610.10004 403.7 608C 403.6 608 410.1 623.7 423.6 623.4zM429.4 643C 429.4 643 424 630.6 406.4 632.7C 406.4 632.7 416.3 646.5 429.4 643zM436.9 660.4C 436.9 660.4 428.9 649.5 412.19998 655.5C 412.1 655.5 424.9 666.7 436.9 660.4zM420.9 602.7C 420.9 602.7 418.6 589.60004 401.3 587.60004C 401.3 587.6 407.6 603.1 420.9 602.7zM420.7 580C 420.7 580 430.6 571.1 423.1 555.3C 423.1 555.4 413.3 568.9 420.7 580zM420.6 593.5C 420.6 593.5 433.7 591.1 435.6 573.8C 435.6 573.7 420.1 580.2 420.6 593.5zM421.9 613.4C 421.9 613.4 435 611 436.9 593.7C 436.9 593.7 421.4 600.1 421.9 613.4zM425.3 632.1C 425.3 632.1 438.19998 628.8 438.8 611.39996C 438.8 611.3 423.9 618.8 425.3 632.1zM431.2 650.7C 431.2 650.7 444.1 647.4 444.7 630C 444.7 630 429.8 637.5 431.2 650.7z" stroke="none" fill="#9E579D" fill-rule="nonzero" />
	</g>
	<g>
        <path d="M596.9 732.8L483.6 732.8C 471.9 732.8 462.5 723.3 462.5 711.7L462.5 711.7L462.5 449C 462.5 437.3 472 427.9 483.6 427.9L483.6 427.9L596.8 427.9C 608.5 427.9 617.89996 437.4 617.89996 449L617.89996 449L617.89996 711.7C 618 723.3 608.5 732.8 596.9 732.8z" stroke="none" fill="#574B90" fill-rule="nonzero" />
        <path d="M596 722L484.5 722C 476.3 722 469.7 715.4 469.7 707.2L469.7 707.2L469.7 451.6C 469.7 443.4 476.30002 436.80002 484.5 436.80002L484.5 436.80002L596 436.80002C 604.2 436.80002 610.8 443.40002 610.8 451.6L610.8 451.6L610.8 707.2C 610.8 715.4 604.2 722 596 722z" stroke="none" fill="#F7F7F7" fill-rule="nonzero" />
        <path d="M582.5 436.8L573.3 436.8C 570.5 436.8 568.2 439.09998 568.2 441.9L568.2 441.9L568.2 445.5C 568.2 448.3 565.9 450.6 563.10004 450.6L563.10004 450.6L522.2 450.6C 519.4 450.6 517.10004 448.30002 517.10004 445.5L517.10004 445.5L517.10004 441.9C 517.10004 439.1 514.80005 436.8 512.00006 436.8L512.00006 436.8L485.90005 436.8L485.90005 434.19998L582.50006 434.19998L582.50006 436.8L582.5 436.8z" stroke="none" fill="#574B90" fill-rule="nonzero" />
        <path d="M558.7 536.6C 558.7 542.2333 556.7084 547.0416 552.725 551.02496C 548.74164 555.0083 543.9333 557 538.3 557C 532.6667 557 527.8584 555.0083 523.875 551.02496C 519.89166 547.0416 517.9 542.2333 517.89996 536.6C 517.9 530.9667 519.89166 526.1584 523.875 522.175C 527.8584 518.19165 532.6667 516.19995 538.3 516.19995C 543.9333 516.19995 548.74164 518.19165 552.725 522.175C 556.7084 526.1584 558.7 530.9667 558.7 536.6C 558.7 536.8374 558.69586 537.0747 558.68756 537.31195" stroke="none" fill="#574B90" fill-rule="nonzero" fill-opacity="0.16862746" />
        <path d="M546.2 531.9C 546.2 536.30005 542.7 539.80005 538.3 539.80005C 533.89996 539.80005 530.39996 536.30005 530.39996 531.9C 530.39996 527.5 533.89996 524 538.3 524C 542.7 524 546.2 527.5 546.2 531.9zM550.2 564.4L550.2 553.10004C 550.2 546.80005 545.10004 541.60004 538.7 541.60004L538.7 541.60004L537.8 541.60004C 531.5 541.60004 526.3 546.7 526.3 553.10004L526.3 553.10004L526.3 564.4C 526.3 566.2 527.7 567.60004 529.5 567.60004L529.5 567.60004L547 567.60004C 548.8 567.6 550.2 566.2 550.2 564.4z" stroke="none" fill="#574B90" fill-rule="nonzero" />
        <path d="M587.2 580.3L489.40002 580.3C 484.90002 580.3 481.30002 576.7 481.30002 572.2C 481.30002 567.7 484.90002 564.10004 489.40002 564.10004L489.40002 564.10004L587.2 564.10004C 591.7 564.10004 595.3 567.7 595.3 572.2C 595.3 576.6 591.7 580.3 587.2 580.3z" stroke="none" fill="#574B90" fill-rule="nonzero" fill-opacity="0.16862746" />
        <path d="M583.8 574.3L492.8 574.3C 491.59998 574.3 490.69998 573.39996 490.69998 572.2C 490.69998 571 491.59998 570.10004 492.8 570.10004L492.8 570.10004L583.8 570.10004C 585 570.10004 585.89996 571.00006 585.89996 572.2C 585.9 573.3 585 574.3 583.8 574.3z" stroke="none" fill="#574B90" fill-rule="nonzero" />
        <path d="M587.3 609.3L489.5 609.3C 485 609.3 481.4 605.7 481.4 601.2C 481.4 596.7 485 593.10004 489.5 593.10004L489.5 593.10004L587.3 593.10004C 591.8 593.10004 595.39996 596.7 595.39996 601.2C 595.4 605.7 591.7 609.3 587.3 609.3z" stroke="none" fill="#574B90" fill-rule="nonzero" fill-opacity="0.16862746" />
        <path d="M492 603.5C 490.8 603.5 489.9 602.6 489.9 601.4C 489.9 600.2 490.8 599.30005 492 599.30005C 493.2 599.30005 494.1 600.2001 494.1 601.4C 494.1 602.6 493.1 603.5 492 603.5zM500.4 601.4C 500.4 600.2 499.5 599.30005 498.3 599.30005C 497.09998 599.30005 496.19998 600.2001 496.19998 601.4C 496.19998 602.60004 497.09998 603.5 498.3 603.5C 499.4 603.5 500.4 602.6 500.4 601.4zM506.6 601.4C 506.6 600.2 505.7 599.30005 504.5 599.30005C 503.3 599.30005 502.4 600.2001 502.4 601.4C 502.4 602.60004 503.3 603.5 504.5 603.5C 505.7 603.5 506.6 602.6 506.6 601.4zM512.9 601.4C 512.9 600.2 512 599.30005 510.80002 599.30005C 509.6 599.30005 508.7 600.2001 508.7 601.4C 508.7 602.60004 509.6 603.5 510.80002 603.5C 512 603.5 512.9 602.6 512.9 601.4zM519.2 601.4C 519.2 600.2 518.3 599.30005 517.10004 599.30005C 515.9 599.30005 515.00006 600.2001 515.00006 601.4C 515.00006 602.60004 515.9001 603.5 517.10004 603.5C 518.3 603.5 519.2 602.6 519.2 601.4zM525.5 601.4C 525.5 600.2 524.6 599.30005 523.4 599.30005C 522.2 599.30005 521.30005 600.2001 521.30005 601.4C 521.30005 602.60004 522.2001 603.5 523.4 603.5C 524.5 603.5 525.5 602.6 525.5 601.4zM531.8 601.4C 531.8 600.2 530.89996 599.30005 529.7 599.30005C 528.5 599.30005 527.60004 600.2001 527.60004 601.4C 527.60004 602.60004 528.50006 603.5 529.7 603.5C 530.8 603.5 531.8 602.6 531.8 601.4z" stroke="none" fill="#574B90" fill-rule="nonzero" />
	</g>
	<g>
        <path d="M405.2 703C 405.2 703 403.1 714.6 402.6 716.6C 402.2 718.19995 401 719.39996 399.80002 720.6C 399.40002 721 399.1 721.8 398.90002 722.39996C 398.7 722.89996 398.80002 723.49994 399.10004 723.99994C 404.40002 732.49994 415.50003 734.0999 415.60004 733.39996C 415.80005 732.1 413.70004 729.89996 411.30005 728.99994C 408.90005 728.19995 407.10004 725.99994 406.50006 723.49994C 406.00006 721.49994 406.00006 719.39996 406.60007 717.39996L406.60007 717.39996L409.20007 708.49994L405.2 703z" stroke="none" fill="#FF5590" fill-rule="nonzero" />
        <path d="M398.7 704.3L401.30002 716C 402.1 719.6 401.6 723.3 399.90002 726.6C 399.90002 726.6 399.90002 726.6 399.90002 726.6C 398.90002 728.39996 399.80002 730.69995 401.7 731.39996C 408 733.6 420.1 737.89996 420.6 737.39996C 423.4 735.1 416.1 731.19995 410.7 727.19995C 407.1 724.49994 405.7 711.69995 405.40002 701.99994L405.40002 701.99994L399.60004 703.49994C 399.2 703.5 398.8 703.8 398.7 704.3z" stroke="none" fill="#FF5590" fill-rule="nonzero" />
        <path d="M409.5 730.5C 412.1 731.4 414.9 731.6 417.5 732C 417.8 732 418.1 732.2 418.3 732.3C 420.8 734.2 422.09998 736.2 420.59998 737.39996C 419.99997 737.89996 405.69998 732.8 400.19998 730.89996C 398.99997 730.49994 398.49997 729.1 399.09998 727.99994L399.09998 727.99994L400.19998 725.99994C 403.1 727.8 406.2 729.4 409.5 730.5zM401.4 584.5C 394.8 586.8 390.69998 595.8 393.69998 604.2C 395.4 609.10004 403.69998 626 411.8 639.10004C 414.9 644.10004 415.3 650.4 412.59998 655.60004C 412.19998 656.4 411.8 657.30005 411.49997 658.2C 410.19998 662.60004 406.79996 687.4 405.09998 703.9C 405.89996 705.80005 407.59998 708.2 409.3 708.7C 415.09998 693.8 423.9 667 425.3 662.3C 426.09998 659.7 426.9 656.8 427.4 654C 431.4 645.6 422 605.3 419.19998 597.4C 416.2 589.1 407.9 582.2 401.4 584.5z" stroke="none" fill="#303A52" fill-rule="nonzero" />
        <path d="M394.9 524.1C 394.9 516.5337 399.64578 510.39996 405.5 510.39996C 411.35422 510.39996 416.1 516.5337 416.1 524.1C 416.1 531.66626 411.35422 537.8 405.5 537.8C 399.64578 537.8 394.9 531.66626 394.9 524.1" stroke="none" fill="#303A52" fill-rule="nonzero" />
        <path d="M403 525.5C 402.8 517.9 396.7 511.5 389.1 511.1C 382.4 510.7 376.6 514.8 374.4 520.7C 373.6 522.8 371.6 524.10004 369.4 524.10004C 368.5 524.10004 367.6 524.2 366.6 524.4C 361.1 525.5 356.7 530.2 356.2 535.9C 355.7 541 358.1 545.5 361.90002 548.10004C 363.50003 549.2 364.50003 551.00006 364.7 553.00006C 366 562.00006 374.2 568.7001 383.6 567.60004C 391.6 566.7 398.1 560.10004 398.80002 552.00006C 399.2 547.10004 397.50003 542.50006 394.50003 539.10004C 399.6 536.8 403.1 531.5 403 525.5zM405.5 505.9C 405.5 505.9 411.5 509.69998 410.7 514.7C 410.7 514.7 413.90002 512.4 414.6 504.7C 415.2 499.3 405.5 505.9 405.5 505.9z" stroke="none" fill="#303A52" fill-rule="nonzero" />
        <path d="M415.2 532.6C 418.40002 534.19995 421.6 535.5 424.90002 536.3C 428.2 537.1 431.60004 537.1 435.10004 536.6C 438.70004 536.1 442.40002 535.1 446.40002 534.39996C 450.40002 533.69995 454.60004 533.49994 458.50003 534.1C 459.20004 534.19995 459.70004 534.89996 459.60004 535.6C 459.50003 536.19995 459.00003 536.69995 458.40002 536.69995C 454.60004 536.89996 451.10004 537.6 447.50003 538.89996C 444.00003 540.1 440.40002 541.69995 436.40002 542.89996C 432.40002 544.1 427.90002 544.6 423.60004 544.1C 419.30005 543.6 415.20004 542.39996 411.30005 540.8C 409.00006 539.89996 407.80005 537.2 408.70004 534.89996C 409.60004 532.6 412.30005 531.39996 414.60004 532.3C 414.70004 532.3 414.80005 532.39996 414.90002 532.39996L414.90002 532.39996L415.2 532.6z" stroke="none" fill="#FF5590" fill-rule="nonzero" />
        <path d="M412.2 563C 414.6 555.8 419.40002 540.5 419 535.6C 418.7 532.39996 416.1 530 412.9 530L412.9 530L392 530C 388.6 530 385.7 532.7 385.6 536.2C 385.4 542.2 388.2 555.9 389.80002 563.10004L389.80002 563.10004L412.2 563.10004L412.2 563z" stroke="none" fill="#9E579D" fill-rule="nonzero" />
        <path d="M405.3 704.4C 405.59998 704.2 405.8 703.80005 405.8 703.4C 405.4 688.10004 404.4 668.60004 404.09998 664.9C 404.09998 664.5 403.99997 664.10004 403.89996 663.60004C 407.19995 645.50006 407.69995 606.7 407.99997 599.9C 408.39996 591 402.99997 580.9 396.09998 580.5C 389.09998 580.2 381.59998 587.4 379.39996 595.6C 377.89996 601 383.59998 629.8 389.79996 650.69995C 391.09995 655.1 391.29996 659.69995 390.59995 664.19995C 390.09995 667.2999 389.99994 670.6 390.19995 672.99994C 390.49994 676.69995 394.59995 691.5999 398.49994 704.49994C 398.59995 704.89996 398.89993 705.19995 399.29993 705.19995C 401.4 705.7 403.4 705.6 405.3 704.4z" stroke="none" fill="#303A52" fill-rule="nonzero" />
        <path d="M387.5 572.1C 388.6 569.1 388.9 565.8 388.4 562.69995C 387.4 555.2999 385.5 541.49994 385.69998 535.6C 385.8 532.39996 388.4 530 391.49997 530L391.49997 530L394.59998 530C 395.8 532.7 398.3 534.8 402.09998 534.8C 405.99997 534.8 408.39996 532.7 409.59998 530L409.59998 530L412.49997 530C 409.39996 536.7 410.49997 545.6 415.89996 550.8C 414.89996 554.39996 413.99997 557.89996 413.39996 560.8C 412.49997 564.7 412.89996 568.8 414.49997 572.5C 417.19998 578.9 419.29996 589.1 418.59998 593.2C 396.69998 599.4 381.59998 588.4 381.59998 588.4L381.59998 588.4L387.5 572.1z" stroke="none" fill="#9E579D" fill-rule="nonzero" />
        <path d="M405.5 531.4L396.1 530.4L399.1 520.1L405.2 520.8L405.5 531.4" stroke="none" fill="#FF5590" fill-rule="nonzero" />
        <path d="M405.2 520.8L399.1 520L398.2 523.2C 399.6 524.7 401.30002 528.10004 403.5 528.10004C 404.2 528.10004 404.8 527.9 405.4 527.50006L405.4 527.50006L405.2 520.8z" stroke="none" fill="#AA4FA9" fill-rule="nonzero" />
        <path d="M405.4 525.8C 403.3 525.8 401.1 524.8 398 522.1C 396.2 520.6 394.9 517.89996 394.9 516L394.9 516L394.9 505.9L410.4 505.9C 410.4 505.9 411.6 511.3 410.4 516.6C 409.6 520.6 407 525.8 405.4 525.8z" stroke="none" fill="#FF5590" fill-rule="nonzero" />
        <path d="M397.5 514.1C 397.5 516.1 396.6 517.69995 395.4 517.69995C 394.19998 517.69995 393 515.1 393 513.19995C 393 511.19995 394.3 510.59995 395.4 510.59995C 396.6 510.5 397.5 512.1 397.5 514.1z" stroke="none" fill="#FF5590" fill-rule="nonzero" />
        <path d="M393 507.1C 393 504 395.6 501.4 398.7 501.4L398.7 501.4L403.90002 501.4C 405.40002 501.4 406.90002 501 408.10004 500.3C 409.90002 499.3 412.30005 499.59998 413.50003 501.3C 414.90002 503.09998 415.50003 505.59998 412.00003 507.9C 410.30002 509 407.80002 507.8 406.10004 508.3C 406.00003 508.3 405.90002 508.3 405.80005 508.3L405.80005 508.3L401.20004 508.3C 399.60004 508.3 398.40005 509.59998 398.30005 511.19998C 398.30005 512.19995 397.40005 513 396.40005 513L396.40005 513L396.20004 513L395.50003 510.6L392.90002 514.1L392.90002 507.1L393 507.1z" stroke="none" fill="#303A52" fill-rule="nonzero" />
        <path d="M464 533C 464 533 461.5 537.9 459.8 537.6C 458.09998 537.3 456.9 536.89996 457.19998 534.3C 457.49997 531.8 459.09998 528.39996 460.4 526.6C 461.7 524.8 465.3 522.69995 465.9 522.69995C 467.8 522.7999 465 525.7999 463.69998 527.39996C 462.4 528.89996 461.09998 530.8 461.99997 531.19995C 462.89996 531.6 465.19998 528.49994 466.39996 528.6C 467.6 528.7 464 533 464 533z" stroke="none" fill="#FF5590" fill-rule="nonzero" />
        <path d="M409.3 505.7C 408.8 508 409.5 509.30002 402 512.9C 394.4 516.5 392.1 515 389.7 518.80005C 389.7 518.80005 390.7 512.4 394.90002 510.20004C 399.10004 508.00003 406.30002 506.60004 408.60004 501.50003C 408.6 501.5 409.6 504.2 409.3 505.7z" stroke="none" fill="#303A52" fill-rule="nonzero" />
        <path d="M392 539.4C 391.6 539.7 391.3 539.9 391 540.2C 390.7 540.4 390.4 540.60004 390.1 540.8C 389.5 541.2 388.9 541.6 388.30002 541.89996C 387.1 542.6 385.80002 543.19995 384.50003 543.8C 381.90002 544.89996 379.10004 545.6 376.30002 546.1C 370.6 546.89996 364.80002 546.1 359.6 544.1C 357 543.1 354.6 541.8 352.30002 540.3C 350.00003 538.8 347.90002 537.1 345.90002 535.3C 342.00003 531.7 338.60004 527.5 335.7 523.2C 335.40002 522.7 335.5 522.10004 336 521.8C 336.4 521.5 337 521.6 337.3 522C 340.8 525.8 344.4 529.3 348.4 532.3C 352.4 535.2 356.69998 537.7 361.3 539C 363.59998 539.6 365.9 540.1 368.19998 540.2C 370.49997 540.3 372.8 540.10004 375.09998 539.7C 377.39996 539.3 379.59998 538.5 381.69998 537.60004C 382.69998 537.10004 383.8 536.60004 384.8 536.00006C 385.3 535.7001 385.8 535.4001 386.19998 535.10004C 386.4 534.9 386.69998 534.80005 386.9 534.60004L386.9 534.60004L387.5 534.2L387.7 534C 389.2 532.8 391.40002 533.1 392.6 534.6C 393.7 536.1 393.5 538.2 392 539.4z" stroke="none" fill="#FF5590" fill-rule="nonzero" />
        <path d="M407.8 506.2C 407.8 506.2 408.09998 514 414.9 517.7C 414.9 517.7 411.9 511.80002 412.1 508C 412.3 504.1 407.4 503.5 407.8 506.2zM397.2 727.2C 396.7 726.8 396.5 726 396.80002 725.4C 397.1 724.9 397.80002 723.60004 398.30002 722.60004C 398.50003 722.2 399.1 722.10004 399.40002 722.50006C 402.80002 727.00006 407.50003 730.00006 412.80002 729.60004C 414.7 730.4 416.30002 732.7 416.1 733.80005C 416.1 734.00006 413.80002 734.60004 411.1 733.7001C 399.3 729.8 397.2 727.2 397.2 727.2z" stroke="none" fill="#303A52" fill-rule="nonzero" />
        <path d="M337.7 518.6C 337.7 518.6 341 523 340 524.5C 339 526 338 526.8 335.9 525.4C 333.69998 524 331.4 521.10004 330.3 519C 329.19998 516.89996 329 512.8 329.19998 512.3C 330.19998 510.59998 331.69998 514.5 332.49997 516.39996C 333.29996 518.3 334.39996 520.3 335.19998 519.6C 335.99997 519 334.09998 515.5 334.8 514.5C 335.5 513.4 337.7 518.6 337.7 518.6z" stroke="none" fill="#FF5590" fill-rule="nonzero" />
	</g>
    <path d="M779.5 762L285.5 762C 276.9 762 270 755.1 270 746.5C 270 737.9 276.9 731 285.5 731L285.5 731L779.5 731C 788.1 731 795 737.9 795 746.5C 795 755.1 788.1 762 779.5 762z" stroke="none" fill="#410950" fill-rule="nonzero" />
    <path d="M392.8 465.9L386.3 458.8L306.69998 531.6C 301.19998 528.1 294.19998 527.19995 287.59998 529.69995C 276.59998 533.89996 271.09998 546.19995 275.39996 557.19995C 279.69995 568.19995 291.89996 573.69995 302.89996 569.39996C 313.89996 565.19995 319.39996 552.89996 315.09998 541.89996C 314.8 541.1 314.39996 540.3 313.99997 539.49994L313.99997 539.49994L374.29996 483.19995L381.49997 490.29996L388.69998 482.99997L382.99997 477.29996L385.19998 474.69995L391.09998 479.99994L396.09998 474.29993L389.89996 468.5999L392.8 465.9zM300.2 562.4C 293.1 565.10004 285 561.60004 282.30002 554.4C 279.6 547.30005 283.1 539.2 290.30002 536.5C 297.40002 533.8 305.50003 537.3 308.2 544.5C 310.9 551.7 307.3 559.7 300.2 562.4z" stroke="none" fill="#9E579D" fill-rule="nonzero" />
</g>
</svg>